<svg id="Component_11_1" data-name="Component 11 – 1" xmlns="http://www.w3.org/2000/svg" width="81.085" height="59" viewBox="0 0 81.085 59">
  <path id="Path_4019" data-name="Path 4019" d="M219.514,363.793a6.9,6.9,0,1,1-7.029-6.76h.134a6.683,6.683,0,0,1,6.9,6.489Zm-6.9-3.435a3.434,3.434,0,1,0,3.407,3.462v-.026a3.36,3.36,0,0,0-3.3-3.435Z" transform="translate(-149.677 -331.45)" fill="#fff"/>
  <path id="Path_4020" data-name="Path 4020" d="M178.041,349.913a1.622,1.622,0,1,0-3.243,0v3.407a1.622,1.622,0,0,0,3.243,0Z" transform="translate(-172.176 -337.727)" fill="#fff"/>
  <path id="Path_4021" data-name="Path 4021" d="M198.413,349.913a1.622,1.622,0,1,0-3.243,0v3.407a1.622,1.622,0,0,0,3.243,0Z" transform="translate(-157.184 -337.727)" fill="#fff"/>
  <path id="Path_4022" data-name="Path 4022" d="M218.8,349.913a1.623,1.623,0,0,0-3.245,0v3.407a1.623,1.623,0,0,0,3.245,0Z" transform="translate(-142.205 -337.727)" fill="#fff"/>
  <path id="Path_4023" data-name="Path 4023" d="M173.308,368.17h3.919a6.4,6.4,0,0,1,5.056,2.029,7.033,7.033,0,0,1,1.651,4.921,6.443,6.443,0,0,1-6.76,6.976h-3.866Zm3.947.92h-2.893v12.085h2.946a5.163,5.163,0,0,0,4.164-1.756,6.426,6.426,0,0,0,1.353-4.273,6.035,6.035,0,0,0-1.785-4.7,5.245,5.245,0,0,0-3.785-1.352" transform="translate(-173.308 -323.42)" fill="#fff"/>
  <rect id="Rectangle_339" data-name="Rectangle 339" width="3.299" height="13.032" transform="translate(23.491 25.83)" fill="#fff"/>
  <path id="Path_4024" data-name="Path 4024" d="M208.07,361.046a5.8,5.8,0,0,0-2.759-.7,3.488,3.488,0,0,0,0,6.976,5.763,5.763,0,0,0,2.759-.73v3.488a10.24,10.24,0,0,1-3,.459,6.762,6.762,0,1,1,0-13.519,10.239,10.239,0,0,1,3,.461Z" transform="translate(-155.06 -331.457)" fill="#fff"/>
  <path id="Path_4025" data-name="Path 4025" d="M188.558,361.046a5.717,5.717,0,0,0-2.758-.7,3.488,3.488,0,0,0,0,6.976,5.761,5.761,0,0,0,2.758-.73v3.488a10.231,10.231,0,0,1-3,.459,6.762,6.762,0,1,1,0-13.519,10.23,10.23,0,0,1,3,.461Z" transform="translate(-169.281 -331.457)" fill="#fff"/>
  <path id="Path_4026" data-name="Path 4026" d="M199.251,360.221a10.374,10.374,0,0,0-2.568-.4c-1.325,0-2.029.433-2.029,1.082,0,.783.975,1.081,1.515,1.216l.919.3a3.889,3.889,0,0,1,3.083,3.731c0,3.272-2.867,4.38-5.408,4.38a19.419,19.419,0,0,1-3.543-.352v-3a12.4,12.4,0,0,0,3.136.486c1.623,0,2.379-.486,2.379-1.216s-.648-1.028-1.459-1.3l-.7-.216c-1.837-.568-3.353-1.651-3.353-3.814,0-2.46,1.839-4.081,4.868-4.081a16.106,16.106,0,0,1,3.217.4Z" transform="translate(-160.128 -331.445)" fill="#fff"/>
  <path id="Path_4027" data-name="Path 4027" d="M183.141,347.328a1.638,1.638,0,0,0-3.272,0v7.895a1.639,1.639,0,1,0,3.272.19v-8.085Z" transform="translate(-168.325 -339.43)" fill="#fff"/>
  <path id="Path_4028" data-name="Path 4028" d="M188.227,343.858a1.622,1.622,0,0,0-3.243,0v17.331a1.622,1.622,0,1,0,3.243,0Z" transform="translate(-164.697 -342.125)" fill="#fff"/>
  <path id="Path_4029" data-name="Path 4029" d="M193.342,347.328a1.639,1.639,0,0,0-3.272,0v7.895a1.639,1.639,0,1,0,3.272.19v-8.085Z" transform="translate(-160.948 -339.43)" fill="#fff"/>
  <path id="Path_4030" data-name="Path 4030" d="M203.514,347.362a1.622,1.622,0,1,0-3.243,0v7.895a1.622,1.622,0,1,0,3.243,0Z" transform="translate(-153.422 -339.464)" fill="#fff"/>
  <path id="Path_4031" data-name="Path 4031" d="M208.618,343.906a1.626,1.626,0,1,0-3.245-.215v17.519a1.626,1.626,0,0,0,3.245.216V343.906Z" transform="translate(-149.662 -342.173)" fill="#fff"/>
  <path id="Path_4032" data-name="Path 4032" d="M213.713,347.328a1.654,1.654,0,0,0-1.73-1.542,1.637,1.637,0,0,0-1.542,1.542v7.895a1.639,1.639,0,0,0,3.272,0Z" transform="translate(-145.922 -339.43)" fill="#fff"/>
  <path id="Path_4033" data-name="Path 4033" d="M181.711,369.6h-1.244V368.17h1.244Zm-.107,12.491h-1.056V372.036H181.6Z" transform="translate(-167.868 -323.42)" fill="#fff"/>
  <path id="Path_4034" data-name="Path 4034" d="M188.995,377.9a1.647,1.647,0,0,0-.892-1.513,8.084,8.084,0,0,0-2.408-.7c-2.189-.378-3.272-1.3-3.272-2.812a2.321,2.321,0,0,1,1.054-2,4.445,4.445,0,0,1,2.624-.676,4.307,4.307,0,0,1,2.758.838,3,3,0,0,1,1.161,1.946H188.94a2.086,2.086,0,0,0-1-1.459,3.413,3.413,0,0,0-1.865-.487,3,3,0,0,0-2,.568,1.438,1.438,0,0,0-.54,1.135,1.524,1.524,0,0,0,.621,1.3,6.088,6.088,0,0,0,2.191.757,6.637,6.637,0,0,1,2.974,1.135,2.3,2.3,0,0,1,.783,1.865,2.656,2.656,0,0,1-1.19,2.217,4.5,4.5,0,0,1-2.758.783,4.376,4.376,0,0,1-2.946-.919,3.27,3.27,0,0,1-1.082-2.027h1.082a2.016,2.016,0,0,0,1,1.594,3.611,3.611,0,0,0,1.975.514,3.309,3.309,0,0,0,2.217-.7,1.892,1.892,0,0,0,.595-1.353" transform="translate(-166.817 -321.879)" fill="#fff"/>
  <path id="Path_4035" data-name="Path 4035" d="M191.975,372.326h-2.353v7.138c0,.945.433,1.406,1.325,1.406a4.676,4.676,0,0,0,1.218-.164v.839a4.314,4.314,0,0,1-1.272.188,2.251,2.251,0,0,1-1.785-.676,2.417,2.417,0,0,1-.512-1.649v-7.083h-1.461v-.92H188.6l.053-2.406h.973v2.406h2.353Z" transform="translate(-163.117 -322.789)" fill="#fff"/>
  <path id="Path_4036" data-name="Path 4036" d="M191.876,380.553h-1.054V370.5h.838l.164,1.92a2.864,2.864,0,0,1,2.81-2.217,3.351,3.351,0,0,1,1.056.162v1.028a4.436,4.436,0,0,0-1.109-.162,2.276,2.276,0,0,0-2,1.163,4.583,4.583,0,0,0-.7,2.677Z" transform="translate(-160.399 -321.879)" fill="#fff"/>
  <path id="Path_4037" data-name="Path 4037" d="M195.6,369.6h-1.244V368.17H195.6Zm-.109,12.491h-1.054V372.036h1.054Z" transform="translate(-157.773 -323.42)" fill="#fff"/>
  <path id="Path_4038" data-name="Path 4038" d="M197.237,382.094H196.4V368.17h1.054V373.9a3.946,3.946,0,0,1,1.487-1.623,4.015,4.015,0,0,1,2.056-.54,3.749,3.749,0,0,1,3.191,1.487,5.866,5.866,0,0,1,1.054,3.7,6.03,6.03,0,0,1-1.38,4.245,3.87,3.87,0,0,1-2.92,1.19,3.679,3.679,0,0,1-2.244-.676,3.48,3.48,0,0,1-1.244-1.461Zm6.9-5.163a4.737,4.737,0,0,0-1.054-3.381,3.073,3.073,0,0,0-2.3-.919,2.96,2.96,0,0,0-2.46,1.163,5.114,5.114,0,0,0-.947,3.272,4.915,4.915,0,0,0,1.082,3.46,2.92,2.92,0,0,0,2.3.973,3,3,0,0,0,2.543-1.271,5.9,5.9,0,0,0,.838-3.3" transform="translate(-156.317 -323.42)" fill="#fff"/>
  <path id="Path_4039" data-name="Path 4039" d="M202.467,370.367h1.054v6.814a2.6,2.6,0,0,0,.811,2.082,2.749,2.749,0,0,0,1.813.567,2.84,2.84,0,0,0,2.27-1.054,3.416,3.416,0,0,0,.73-2.217v-6.165H210.2v10.059h-.838l-.135-1.6a3.409,3.409,0,0,1-1.542,1.487,3.776,3.776,0,0,1-1.73.406,3.243,3.243,0,0,1-2.568-1,3.611,3.611,0,0,1-.866-2.541v-6.841Z" transform="translate(-151.842 -321.75)" fill="#fff"/>
  <path id="Path_4040" data-name="Path 4040" d="M212.531,372.326h-2.353v7.138c0,.945.433,1.406,1.325,1.406a4.676,4.676,0,0,0,1.218-.164v.839a4.314,4.314,0,0,1-1.272.188,2.244,2.244,0,0,1-1.783-.676,2.409,2.409,0,0,1-.514-1.649v-7.083h-1.461v-.92h1.461L209.2,369h.973v2.406h2.353Z" transform="translate(-147.967 -322.789)" fill="#fff"/>
  <path id="Path_4041" data-name="Path 4041" d="M210.81,375.525a5.537,5.537,0,0,1,1.513-4.164,4.791,4.791,0,0,1,6.624.35,5.805,5.805,0,0,1,1.135,3.785,5.512,5.512,0,0,1-1.459,4.137,4.722,4.722,0,0,1-6.624-.352,5.543,5.543,0,0,1-1.19-3.757m1.081,0a4.812,4.812,0,0,0,1.163,3.488,3.457,3.457,0,0,0,5.082-.3,5.317,5.317,0,0,0,.866-3.191,4.949,4.949,0,0,0-1.109-3.488,3.457,3.457,0,0,0-5.082.3,4.97,4.97,0,0,0-.92,3.191" transform="translate(-145.812 -321.879)" fill="#fff"/>
  <path id="Path_4042" data-name="Path 4042" d="M218.241,380.553h-1.056V370.5h.839l.162,1.92A2.866,2.866,0,0,1,221,370.2a3.332,3.332,0,0,1,1.054.162v1.028a4.436,4.436,0,0,0-1.109-.162,2.278,2.278,0,0,0-2,1.163,4.6,4.6,0,0,0-.7,2.677Z" transform="translate(-140.968 -321.879)" fill="#fff"/>
</svg>
