<svg id="Group_790" data-name="Group 790" xmlns="http://www.w3.org/2000/svg" xmlns:xlink="http://www.w3.org/1999/xlink" width="6.957" height="8.116" viewBox="0 0 6.957 8.116">
  <defs>
    <linearGradient id="linear-gradient" x1="0.667" y1="0.5" x2="0.333" y2="0.5" gradientUnits="objectBoundingBox">
      <stop offset="0.002" stop-color="#d0dff7"/>
      <stop offset="0.091" stop-color="#d6e3f8"/>
      <stop offset="0.537" stop-color="#f3f7fd"/>
      <stop offset="0.791" stop-color="#fff"/>
    </linearGradient>
  </defs>
  <path id="Path_4271" data-name="Path 4271" d="M1080.013,393.689v1.161a2.615,2.615,0,0,0,.3,1.336,3.58,3.58,0,0,0,3.177,2.139l.922-.123a3.478,3.478,0,0,0,1.534-.9l.544-.7a3.455,3.455,0,0,0,.476-1.754v-1.161a3.565,3.565,0,0,0-3.475-3.475l-.925.123a3.445,3.445,0,0,0-1.534.9l-.543.7a3.479,3.479,0,0,0-.476,1.754Z" transform="translate(-1080.011 -390.211)" fill="url(#linear-gradient)"/>
</svg>
