<svg xmlns="http://www.w3.org/2000/svg" width="82.857" height="345.757" viewBox="0 0 82.857 345.757">
  <g id="Group_685" data-name="Group 685" transform="translate(542.31 -1057.425) rotate(-90)">
    <path id="Path_4188" data-name="Path 4188" d="M-1388.855-499.328q11.568-9.492,33.661-9.494h82.34q17.955,0,27.447-10.53,7.941-8.8,7.94-22.958h-165.715v82.857Q-1403.182-487.418-1388.855-499.328Z" fill="#00a1db"/>
    <path id="Path_4189" data-name="Path 4189" d="M-1223.14-542.31q0,16.227,10.53,25.375,9.321,8.115,24.857,8.113h82.34q25.375,0,36.941,12.6,11.045,12.086,11.047,36.768V-542.31Z" fill="#00a1db"/>
    <path id="Path_4190" data-name="Path 4190" d="M-1105.413-508.822h-82.34q-15.535,0-24.857-8.113-10.527-9.148-10.53-25.375h-14.327q0,14.156-7.94,22.958-9.492,10.531-27.447,10.53h-82.34q-22.094,0-33.661,9.494-14.325,11.91-14.327,39.875h12.774q0-18.643,7.595-26.756t25.893-8.113h82.685q16.57,0,27.964-7.768,12.6-8.629,16.054-24.512a38.754,38.754,0,0,0,12.946,22.268q12.086,10.013,30.9,10.012h82.858q15.881,0,23.476,6.041,9.84,7.769,9.84,28.828h12.773q0-24.684-11.047-36.768Q-1080.04-508.819-1105.413-508.822Z" fill="#003c5d"/>
  </g>
</svg>
