<svg xmlns="http://www.w3.org/2000/svg" width="136.225" height="263.872" viewBox="0 0 136.225 263.872">
  <g id="Group_604" data-name="Group 604" transform="translate(-1288 -6131.288)">
    <g id="Group_75" data-name="Group 75" transform="translate(1288 6246.677)">
      <g id="Group_38" data-name="Group 38" transform="translate(0 121.558)">
        <g id="Group_31" data-name="Group 31">
          <g id="Group_13" data-name="Group 13" transform="translate(0.066)">
            <g id="Group_12" data-name="Group 12">
              <path id="Path_80" data-name="Path 80" d="M1305.185,6385.246l.329,17.118s-17.2,4.652-17.444,7.821l33.121,1.986.581-26.692Z" transform="translate(-1288.071 -6385.246)" fill="#53a8dd"/>
            </g>
          </g>
          <g id="Group_16" data-name="Group 16" transform="translate(26.163 15.789)">
            <g id="Group_15" data-name="Group 15">
              <g id="Group_14" data-name="Group 14">
                <path id="Path_81" data-name="Path 81" d="M1317.682,6402.23a1.357,1.357,0,0,1,.912,1.564,1.3,1.3,0,0,1-1.542.918,1.432,1.432,0,0,1-.957-1.661,1.355,1.355,0,0,1,1.71-.777" transform="translate(-1316.041 -6402.169)" fill="#ebebeb"/>
              </g>
            </g>
          </g>
          <g id="Group_18" data-name="Group 18" transform="translate(0 22.986)">
            <g id="Group_17" data-name="Group 17">
              <path id="Path_82" data-name="Path 82" d="M1321.187,6413.821l.058-2.662-31.395-1.276s-1.85.987-1.85,2.025Z" transform="translate(-1288 -6409.883)" fill="#818181"/>
            </g>
          </g>
          <g id="Group_21" data-name="Group 21" transform="translate(16.974 16.798)">
            <g id="Group_20" data-name="Group 20">
              <g id="Group_19" data-name="Group 19">
                <path id="Path_83" data-name="Path 83" d="M1306.193,6403.392c0,.164.813.25,1.6.785.8.514,1.2,1.223,1.354,1.161.15-.028-.076-1-1.043-1.633S1306.16,6403.243,1306.193,6403.392Z" transform="translate(-1306.192 -6403.25)" fill="#1a2e35"/>
              </g>
            </g>
          </g>
          <g id="Group_24" data-name="Group 24" transform="translate(13.465 18.26)">
            <g id="Group_23" data-name="Group 23">
              <g id="Group_22" data-name="Group 22">
                <path id="Path_84" data-name="Path 84" d="M1302.433,6404.879c-.039.157.659.444,1.2,1.141.56.678.687,1.422.848,1.418.152.028.28-.92-.408-1.771S1302.439,6404.726,1302.433,6404.879Z" transform="translate(-1302.431 -6404.817)" fill="#1a2e35"/>
              </g>
            </g>
          </g>
          <g id="Group_27" data-name="Group 27" transform="translate(10.166 19.64)">
            <g id="Group_26" data-name="Group 26">
              <g id="Group_25" data-name="Group 25">
                <path id="Path_85" data-name="Path 85" d="M1300.148,6409.116c.147.038.386-.77-.016-1.664s-1.154-1.262-1.225-1.128c-.093.132.391.616.709,1.356C1299.952,6408.412,1299.988,6409.1,1300.148,6409.116Z" transform="translate(-1298.895 -6406.297)" fill="#1a2e35"/>
              </g>
            </g>
          </g>
          <g id="Group_30" data-name="Group 30" transform="translate(17.326 12.473)">
            <g id="Group_29" data-name="Group 29">
              <g id="Group_28" data-name="Group 28">
                <path id="Path_86" data-name="Path 86" d="M1306.576,6399.172c.066.149.814-.062,1.729.016.918.059,1.626.378,1.713.241.1-.116-.591-.728-1.671-.8S1306.5,6399.043,1306.576,6399.172Z" transform="translate(-1306.57 -6398.615)" fill="#1a2e35"/>
              </g>
            </g>
          </g>
        </g>
        <g id="Group_34" data-name="Group 34" transform="translate(17.329 6.969)">
          <g id="Group_33" data-name="Group 33">
            <g id="Group_32" data-name="Group 32">
              <path id="Path_87" data-name="Path 87" d="M1306.573,6395.323a3.126,3.126,0,0,0,1.665.019,7.452,7.452,0,0,0,1.748-.506,7.663,7.663,0,0,0,.964-.491,2.074,2.074,0,0,0,.509-.383.709.709,0,0,0,.089-.862.893.893,0,0,0-.7-.383,2.2,2.2,0,0,0-.625.076,6.028,6.028,0,0,0-1.04.338,5.827,5.827,0,0,0-1.551.981c-.783.7-1.056,1.3-1,1.334.073.055.456-.447,1.25-1.023a6.636,6.636,0,0,1,1.5-.81,6.087,6.087,0,0,1,.96-.279c.354-.087.652-.084.74.074.032.061.036.083-.039.186a1.653,1.653,0,0,1-.374.28,8.618,8.618,0,0,1-.887.487,9.152,9.152,0,0,1-1.618.589A11.432,11.432,0,0,0,1306.573,6395.323Z" transform="translate(-1306.573 -6392.716)" fill="#1a2e35"/>
            </g>
          </g>
        </g>
        <g id="Group_37" data-name="Group 37" transform="translate(15.416 4.512)">
          <g id="Group_36" data-name="Group 36">
            <g id="Group_35" data-name="Group 35">
              <path id="Path_88" data-name="Path 88" d="M1306.644,6395.383a2.665,2.665,0,0,0,.466-1.6,5.383,5.383,0,0,0-.6-2.842,1.375,1.375,0,0,0-1.047-.857.777.777,0,0,0-.7.452,2.238,2.238,0,0,0-.181.608,3.709,3.709,0,0,0-.02,1.119,3.826,3.826,0,0,0,.681,1.731c.635.872,1.309,1.077,1.323,1.022.056-.081-.5-.4-.987-1.238a3.831,3.831,0,0,1-.5-1.572,3.391,3.391,0,0,1,.047-.961c.058-.352.2-.635.327-.6.165,0,.441.271.573.555a5.557,5.557,0,0,1,.4.908,5.984,5.984,0,0,1,.295,1.666C1306.739,6394.751,1306.556,6395.355,1306.644,6395.383Z" transform="translate(-1304.522 -6390.082)" fill="#1a2e35"/>
            </g>
          </g>
        </g>
      </g>
      <g id="Group_70" data-name="Group 70" transform="translate(11.066)">
        <g id="Group_39" data-name="Group 39" transform="translate(2.588 17.239)">
          <path id="Path_89" data-name="Path 89" d="M1406.549,6273.438l-81.6,14.823a23.977,23.977,0,0,0-19.21,17.859q-.146.619-.273,1.265c-2.716,13.809-2.833,76.933-2.833,76.933l22.146-.255,4-71.287,62.852-8.6a18.524,18.524,0,0,0,11.334-5.868C1408.27,6292.383,1409.92,6284.356,1406.549,6273.438Z" transform="translate(-1302.635 -6273.438)" fill="#1a2e35"/>
        </g>
        <g id="Group_66" data-name="Group 66" transform="translate(0 87.179)">
          <g id="Group_59" data-name="Group 59">
            <g id="Group_41" data-name="Group 41" transform="translate(0)">
              <g id="Group_40" data-name="Group 40">
                <path id="Path_90" data-name="Path 90" d="M1315.22,6349.309l1.506,17.054s-16.836,5.822-16.865,9l33.18-.3-1.255-26.67Z" transform="translate(-1299.861 -6348.399)" fill="#20a8e1"/>
              </g>
            </g>
            <g id="Group_44" data-name="Group 44" transform="translate(25.486 15.949)">
              <g id="Group_43" data-name="Group 43">
                <g id="Group_42" data-name="Group 42">
                  <path id="Path_91" data-name="Path 91" d="M1328.739,6365.536a1.357,1.357,0,0,1,1.017,1.5,1.3,1.3,0,0,1-1.475,1.021,1.431,1.431,0,0,1-1.069-1.59,1.354,1.354,0,0,1,1.652-.893" transform="translate(-1327.177 -6365.493)" fill="#ebebeb"/>
                </g>
              </g>
            </g>
            <g id="Group_46" data-name="Group 46" transform="translate(0 24.011)">
              <g id="Group_45" data-name="Group 45">
                <path id="Path_92" data-name="Path 92" d="M1333.041,6376.793l-.126-2.659-31.408.885s-1.666,1.341-1.646,2.07Z" transform="translate(-1299.861 -6374.134)" fill="#818181"/>
              </g>
            </g>
            <g id="Group_49" data-name="Group 49" transform="translate(16.317 17.644)">
              <g id="Group_48" data-name="Group 48">
                <g id="Group_47" data-name="Group 47">
                  <path id="Path_93" data-name="Path 93" d="M1317.351,6367.489c.014.162.828.193,1.651.673.837.457,1.285,1.137,1.43,1.065.147-.039-.145-1-1.152-1.558S1317.308,6367.343,1317.351,6367.489Z" transform="translate(-1317.35 -6367.31)" fill="#1a2e35"/>
                </g>
              </g>
            </g>
            <g id="Group_52" data-name="Group 52" transform="translate(12.913 19.369)">
              <g id="Group_51" data-name="Group 51">
                <g id="Group_50" data-name="Group 50">
                  <path id="Path_94" data-name="Path 94" d="M1313.7,6369.233c-.029.16.688.4,1.274,1.055.6.639.782,1.373.943,1.358.154.017.217-.937-.528-1.74S1313.7,6369.08,1313.7,6369.233Z" transform="translate(-1313.701 -6369.158)" fill="#1a2e35"/>
                </g>
              </g>
            </g>
            <g id="Group_55" data-name="Group 55" transform="translate(9.717 20.98)">
              <g id="Group_54" data-name="Group 54">
                <g id="Group_53" data-name="Group 53">
                  <path id="Path_95" data-name="Path 95" d="M1311.714,6373.617c.149.027.332-.794-.13-1.66s-1.238-1.179-1.3-1.041c-.085.138.432.588.8,1.3C1311.47,6372.93,1311.552,6373.61,1311.714,6373.617Z" transform="translate(-1310.275 -6370.885)" fill="#1a2e35"/>
                </g>
              </g>
            </g>
            <g id="Group_58" data-name="Group 58" transform="translate(16.399 13.23)">
              <g id="Group_57" data-name="Group 57">
                <g id="Group_56" data-name="Group 56">
                  <path id="Path_96" data-name="Path 96" d="M1317.444,6363.248c.076.144.807-.119,1.726-.1.92,0,1.648.266,1.725.123.088-.122-.639-.686-1.721-.687S1317.359,6363.125,1317.444,6363.248Z" transform="translate(-1317.438 -6362.579)" fill="#1a2e35"/>
                </g>
              </g>
            </g>
          </g>
          <g id="Group_62" data-name="Group 62" transform="translate(16.166 7.56)">
            <g id="Group_61" data-name="Group 61">
              <g id="Group_60" data-name="Group 60">
                <path id="Path_97" data-name="Path 97" d="M1317.188,6359.395a3.114,3.114,0,0,0,1.661-.1,7.446,7.446,0,0,0,1.71-.625,7.788,7.788,0,0,0,.928-.556,2.033,2.033,0,0,0,.481-.416.707.707,0,0,0,.03-.866.894.894,0,0,0-.73-.334,2.226,2.226,0,0,0-.619.118,6.054,6.054,0,0,0-1.014.409,5.847,5.847,0,0,0-1.479,1.086c-.733.753-.964,1.372-.907,1.4.075.049.424-.477,1.177-1.106a6.632,6.632,0,0,1,1.439-.913,6.245,6.245,0,0,1,.938-.344c.347-.11.646-.129.744.023.036.058.042.081-.026.187a1.642,1.642,0,0,1-.354.305,8.706,8.706,0,0,1-.851.547,9.3,9.3,0,0,1-1.574.7A11.348,11.348,0,0,0,1317.188,6359.395Z" transform="translate(-1317.188 -6356.502)" fill="#1a2e35"/>
              </g>
            </g>
          </g>
          <g id="Group_65" data-name="Group 65" transform="translate(14.016 5.468)">
            <g id="Group_64" data-name="Group 64">
              <g id="Group_63" data-name="Group 63">
                <path id="Path_98" data-name="Path 98" d="M1317.257,6359.465a2.65,2.65,0,0,0,.354-1.627,5.391,5.391,0,0,0-.8-2.794,1.377,1.377,0,0,0-1.1-.784.78.78,0,0,0-.67.5,2.247,2.247,0,0,0-.139.618,3.7,3.7,0,0,0,.058,1.12,3.823,3.823,0,0,0,.8,1.679c.693.825,1.379.984,1.39.929.049-.085-.532-.368-1.07-1.168a3.838,3.838,0,0,1-.607-1.534,3.447,3.447,0,0,1-.02-.961c.034-.355.151-.646.285-.617.165-.011.459.24.61.514a5.506,5.506,0,0,1,.458.878,6,6,0,0,1,.409,1.642C1317.309,6358.83,1317.167,6359.445,1317.257,6359.465Z" transform="translate(-1314.883 -6354.26)" fill="#1a2e35"/>
              </g>
            </g>
          </g>
        </g>
        <g id="Group_67" data-name="Group 67" transform="translate(8.141)">
          <path id="Path_99" data-name="Path 99" d="M1405.561,6272.578l-75.947-16.746a15.857,15.857,0,0,0-7.414-.713h0a15.845,15.845,0,0,0-13.482,17.712l1.08,75.351,26.708-1.739-1.024-61.244Z" transform="translate(-1308.586 -6254.961)" fill="#1a2e35"/>
        </g>
        <g id="Group_69" data-name="Group 69" transform="translate(8.41 23.339)">
          <g id="Group_68" data-name="Group 68">
            <path id="Path_100" data-name="Path 100" d="M1308.9,6285.794a1.783,1.783,0,0,1,.026.318c.008.229.02.539.034.935.021.847.051,2.06.091,3.617.062,3.173.151,7.75.262,13.457.184,11.468.442,27.476.735,45.732l-.241-.226,15.759-.825,11.347-.588-.219.238c-.481-19.372-.907-36.482-1.213-48.775-.132-6.12-.238-11.039-.312-14.453-.027-1.678-.048-2.986-.062-3.9,0-.428,0-.762-.006-1.009a.172.172,0,1,1,.044,0c.011.247.027.58.047,1.008.034.91.082,2.217.144,3.894.107,3.413.261,8.331.453,14.449.345,12.292.825,29.4,1.368,48.771l.006.226-.226.012-11.346.593-15.76.815-.238.012,0-.238c-.229-18.258-.431-34.267-.576-45.736-.053-5.707-.1-10.284-.124-13.458-.006-1.558-.01-2.771-.013-3.617,0-.4.005-.707.006-.937A1.822,1.822,0,0,1,1308.9,6285.794Z" transform="translate(-1308.875 -6279.976)" fill="#375a64"/>
          </g>
        </g>
      </g>
      <g id="Group_72" data-name="Group 72" transform="translate(45.955 23.249)">
        <g id="Group_71" data-name="Group 71">
          <path id="Path_101" data-name="Path 101" d="M1337.255,6286.057c-.027-.125,6.344-1.609,14.229-3.313s14.3-2.982,14.328-2.856-6.343,1.609-14.229,3.313S1337.282,6286.183,1337.255,6286.057Z" transform="translate(-1337.255 -6279.879)" fill="#375a64"/>
        </g>
      </g>
      <g id="Group_74" data-name="Group 74" transform="translate(46.007 22.165)">
        <g id="Group_73" data-name="Group 73">
          <path id="Path_102" data-name="Path 102" d="M1340.742,6278.717a2.459,2.459,0,0,1,.245,1.26,6.945,6.945,0,0,1-2.552,5.489c-.63.495-1.1.672-1.121.625a8.93,8.93,0,0,0,3.428-7.374Z" transform="translate(-1337.31 -6278.717)" fill="#375a64"/>
        </g>
      </g>
    </g>
    <g id="Group_143" data-name="Group 143" transform="translate(1363.373 6131.288)">
      <g id="Group_140" data-name="Group 140" transform="translate(2.344 8.561)">
        <g id="Group_86" data-name="Group 86">
          <g id="Group_85" data-name="Group 85">
            <g id="Group_84" data-name="Group 84">
              <g id="Group_79" data-name="Group 79">
                <g id="Group_78" data-name="Group 78">
                  <g id="Group_77" data-name="Group 77">
                    <g id="Group_76" data-name="Group 76">
                      <path id="Path_103" data-name="Path 103" d="M1395.745,6185.556l-17.225-1.375c-.107-2.011.036-9.792.036-9.792s-7.167-1.114-7.255-8.279,1.154-23.621,1.154-23.621h0a24.907,24.907,0,0,1,25.024,3.145l1.062.817Z" transform="translate(-1371.296 -6140.464)" fill="#ffbe9c"/>
                    </g>
                  </g>
                </g>
              </g>
              <g id="Group_83" data-name="Group 83" transform="translate(7.232 31.166)">
                <g id="Group_82" data-name="Group 82">
                  <g id="Group_81" data-name="Group 81">
                    <g id="Group_80" data-name="Group 80">
                      <path id="Path_104" data-name="Path 104" d="M1379.064,6176.522a16.662,16.662,0,0,0,9.341-2.655s-2.208,5.158-9.358,4.512Z" transform="translate(-1379.047 -6173.867)" fill="#ff996c"/>
                    </g>
                  </g>
                </g>
              </g>
            </g>
          </g>
        </g>
        <g id="Group_96" data-name="Group 96" transform="translate(26.082 13.183)">
          <g id="Group_90" data-name="Group 90">
            <g id="Group_89" data-name="Group 89">
              <g id="Group_88" data-name="Group 88">
                <g id="Group_87" data-name="Group 87">
                  <path id="Path_105" data-name="Path 105" d="M1399.53,6154.82c.122-.053,4.924-1.457,4.768,3.442s-5.043,3.731-5.047,3.591S1399.53,6154.82,1399.53,6154.82Z" transform="translate(-1399.251 -6154.594)" fill="#ffbe9c"/>
                </g>
              </g>
            </g>
          </g>
          <g id="Group_95" data-name="Group 95" transform="translate(1.551 1.604)">
            <g id="Group_94" data-name="Group 94">
              <g id="Group_93" data-name="Group 93">
                <g id="Group_92" data-name="Group 92">
                  <g id="Group_91" data-name="Group 91">
                    <path id="Path_106" data-name="Path 106" d="M1400.918,6160.16c.022-.015.084.063.226.134a.858.858,0,0,0,.637.034,2.112,2.112,0,0,0,1.037-1.864,2.8,2.8,0,0,0-.2-1.229.983.983,0,0,0-.62-.675.433.433,0,0,0-.511.217c-.07.135-.042.233-.068.242s-.1-.086-.057-.286a.543.543,0,0,1,.2-.3.642.642,0,0,1,.476-.109,1.2,1.2,0,0,1,.868.788,2.9,2.9,0,0,1,.252,1.375,2.217,2.217,0,0,1-1.313,2.076.915.915,0,0,1-.776-.155C1400.923,6160.278,1400.9,6160.168,1400.918,6160.16Z" transform="translate(-1400.913 -6156.313)" fill="#ff996c"/>
                  </g>
                </g>
              </g>
            </g>
          </g>
        </g>
        <g id="Group_139" data-name="Group 139" transform="translate(2.498 7.168)">
          <g id="Group_138" data-name="Group 138">
            <g id="Group_129" data-name="Group 129" transform="translate(0 3.861)">
              <g id="Group_128" data-name="Group 128">
                <g id="Group_127" data-name="Group 127">
                  <g id="Group_106" data-name="Group 106">
                    <g id="Group_100" data-name="Group 100" transform="translate(1.651 1.176)">
                      <g id="Group_99" data-name="Group 99">
                        <g id="Group_98" data-name="Group 98">
                          <g id="Group_97" data-name="Group 97">
                            <path id="Path_107" data-name="Path 107" d="M1375.744,6154.469a1.025,1.025,0,0,0,.987,1.033.979.979,0,0,0,1.054-.923,1.024,1.024,0,0,0-.985-1.033A.98.98,0,0,0,1375.744,6154.469Z" transform="translate(-1375.743 -6153.544)" fill="#1a2e35"/>
                          </g>
                        </g>
                      </g>
                    </g>
                    <g id="Group_105" data-name="Group 105">
                      <g id="Group_104" data-name="Group 104">
                        <g id="Group_103" data-name="Group 103">
                          <g id="Group_102" data-name="Group 102">
                            <g id="Group_101" data-name="Group 101">
                              <path id="Path_108" data-name="Path 108" d="M1373.99,6153.36c.127.133.9-.441,2-.438,1.1-.013,1.908.554,2.028.419.059-.06-.07-.3-.422-.557a2.813,2.813,0,0,0-1.623-.5,2.694,2.694,0,0,0-1.594.515C1374.042,6153.059,1373.927,6153.3,1373.99,6153.36Z" transform="translate(-1373.974 -6152.285)" fill="#1a2e35"/>
                            </g>
                          </g>
                        </g>
                      </g>
                    </g>
                  </g>
                  <g id="Group_116" data-name="Group 116" transform="translate(10.824 0.205)">
                    <g id="Group_110" data-name="Group 110" transform="translate(1.794 1.355)">
                      <g id="Group_109" data-name="Group 109">
                        <g id="Group_108" data-name="Group 108">
                          <g id="Group_107" data-name="Group 107">
                            <path id="Path_109" data-name="Path 109" d="M1387.5,6154.88a1.025,1.025,0,0,0,.986,1.034.98.98,0,0,0,1.055-.923,1.024,1.024,0,0,0-.986-1.033A.978.978,0,0,0,1387.5,6154.88Z" transform="translate(-1387.497 -6153.957)" fill="#1a2e35"/>
                          </g>
                        </g>
                      </g>
                    </g>
                    <g id="Group_115" data-name="Group 115">
                      <g id="Group_114" data-name="Group 114">
                        <g id="Group_113" data-name="Group 113">
                          <g id="Group_112" data-name="Group 112">
                            <g id="Group_111" data-name="Group 111">
                              <path id="Path_110" data-name="Path 110" d="M1385.591,6153.58c.127.133.9-.44,2-.437,1.1-.013,1.908.553,2.027.418.059-.06-.069-.3-.423-.556a2.8,2.8,0,0,0-1.623-.5,2.694,2.694,0,0,0-1.6.515C1385.644,6153.28,1385.529,6153.52,1385.591,6153.58Z" transform="translate(-1385.575 -6152.504)" fill="#1a2e35"/>
                            </g>
                          </g>
                        </g>
                      </g>
                    </g>
                  </g>
                  <g id="Group_121" data-name="Group 121" transform="translate(4.038 0.272)">
                    <g id="Group_120" data-name="Group 120">
                      <g id="Group_119" data-name="Group 119">
                        <g id="Group_118" data-name="Group 118">
                          <g id="Group_117" data-name="Group 117">
                            <path id="Path_111" data-name="Path 111" d="M1381.108,6161.752a7.239,7.239,0,0,0-1.789-.323c-.281-.029-.548-.084-.594-.276a1.434,1.434,0,0,1,.188-.834l.831-2.141a36.77,36.77,0,0,0,1.868-5.6,36.862,36.862,0,0,0-2.314,5.437c-.278.752-.544,1.469-.8,2.154a1.632,1.632,0,0,0-.146,1.1.707.707,0,0,0,.463.411,1.922,1.922,0,0,0,.478.066A7.188,7.188,0,0,0,1381.108,6161.752Z" transform="translate(-1378.302 -6152.576)" fill="#1a2e35"/>
                          </g>
                        </g>
                      </g>
                    </g>
                  </g>
                  <g id="Group_126" data-name="Group 126" transform="translate(6.575 10.21)">
                    <g id="Group_125" data-name="Group 125">
                      <g id="Group_124" data-name="Group 124">
                        <g id="Group_123" data-name="Group 123">
                          <g id="Group_122" data-name="Group 122">
                            <path id="Path_112" data-name="Path 112" d="M1384.53,6163.228c-.179-.012-.181,1.184-1.2,2.033s-2.3.716-2.305.884c-.017.076.284.232.822.247a2.972,2.972,0,0,0,1.924-.671,2.59,2.59,0,0,0,.933-1.7C1384.745,6163.516,1384.612,6163.22,1384.53,6163.228Z" transform="translate(-1381.02 -6163.228)" fill="#1a2e35"/>
                          </g>
                        </g>
                      </g>
                    </g>
                  </g>
                </g>
              </g>
            </g>
            <g id="Group_133" data-name="Group 133" transform="translate(10.551)">
              <g id="Group_132" data-name="Group 132">
                <g id="Group_131" data-name="Group 131">
                  <g id="Group_130" data-name="Group 130">
                    <path id="Path_113" data-name="Path 113" d="M1385.288,6148.973c.108.3,1.208.158,2.5.313,1.295.129,2.337.507,2.509.239.077-.129-.105-.41-.527-.7a4.373,4.373,0,0,0-3.815-.422C1385.479,6148.595,1385.241,6148.83,1385.288,6148.973Z" transform="translate(-1385.282 -6148.146)" fill="#1a2e35"/>
                  </g>
                </g>
              </g>
            </g>
            <g id="Group_137" data-name="Group 137" transform="translate(0.393 0.608)">
              <g id="Group_136" data-name="Group 136">
                <g id="Group_135" data-name="Group 135">
                  <g id="Group_134" data-name="Group 134">
                    <path id="Path_114" data-name="Path 114" d="M1374.423,6149.939c.193.25.952-.009,1.864-.021.912-.044,1.685.168,1.862-.093.078-.127-.043-.377-.381-.615a2.7,2.7,0,0,0-3,.093C1374.443,6149.559,1374.337,6149.817,1374.423,6149.939Z" transform="translate(-1374.395 -6148.798)" fill="#1a2e35"/>
                  </g>
                </g>
              </g>
            </g>
          </g>
        </g>
      </g>
      <g id="Group_142" data-name="Group 142">
        <g id="Group_141" data-name="Group 141">
          <path id="Path_115" data-name="Path 115" d="M1368.8,6137.349a2.642,2.642,0,0,1,.977-2.363,1.875,1.875,0,0,1,2.43.182,2.19,2.19,0,0,1,1.883-2.655c1.168-.075,2.165.809,3.294,1.118a5.32,5.32,0,0,0,3.346-.385c1.06-.428,2.052-1.017,3.125-1.409a9.165,9.165,0,0,1,11.72,5.38,4.069,4.069,0,0,1,4.314,1.633,6.673,6.673,0,0,1,1.022,4.7,14.951,14.951,0,0,1-.819,3.216c0,.092.009.182.007.274-.074,3.941-.52,8.568-2.2,8.594-2.93.045-2.232-5.476-2.232-5.476-3.6-1.389-2.256-6.776-3.156-7.594s-2.779-2.717-10.308,1.132a14.584,14.584,0,0,1-8.932.966c-.062-.013-.126-.023-.188-.039l-.044-.008c-.023-.007-.039-.019-.062-.025a6.78,6.78,0,0,1-1.931-.819,3.82,3.82,0,0,1-1.591-1.769,2.088,2.088,0,0,1,.41-2.243A4.592,4.592,0,0,1,1368.8,6137.349Z" transform="translate(-1368.784 -6131.288)" fill="#1a2e35"/>
        </g>
      </g>
    </g>
    <g id="Group_175" data-name="Group 175" transform="translate(1339.662 6180.785)">
      <g id="Group_172" data-name="Group 172">
        <g id="Group_144" data-name="Group 144" transform="translate(12.966)">
          <path id="Path_116" data-name="Path 116" d="M1428.545,6239.351a9.783,9.783,0,0,1-4.991,11.215l-.073.037c-3.008,1.5-7.2,1.154-10.086-.148l-2.465-1.113.83,20.685c-12.176,7.939-45.788,1.947-52.38-12.1-.045-3.63-1.486-32.683-1.486-32.683l-.626-32.292c5.731-5.632,8.791-7.317,16.77-8.259,1.3-.155,2.338-.253,3.084-.346a30.483,30.483,0,0,0,18.367-.012h0c2.838.121,5.189.995,7.6,1.458,7.6,1.457,13.077,7,14.6,12.109,1.252,4.212,9.287,35.419,9.287,35.419Z" transform="translate(-1357.268 -6184.339)" fill="#53a8dd"/>
        </g>
        <g id="Group_146" data-name="Group 146" transform="translate(0 2.413)">
          <g id="Group_145" data-name="Group 145">
            <path id="Path_117" data-name="Path 117" d="M1364.556,6186.925s-7.593,2.586-10.782,9.89c-2.081,4.766-5.139,27.7-5.139,27.7l-3.856,7.439a12.529,12.529,0,0,0-1.408,5.773v1.133a12.543,12.543,0,0,0,2.812,7.915h0a12.55,12.55,0,0,0,8.62,4.577c3.85.345,8.506.5,9.5-.64,1.755-2,4.387-7.395,4.387-7.395l-11.226-5.964,4.834-8.953Z" transform="translate(-1343.371 -6186.925)" fill="#53a8dd"/>
          </g>
        </g>
        <g id="Group_149" data-name="Group 149" transform="translate(62.204 25.408)">
          <g id="Group_148" data-name="Group 148">
            <g id="Group_147" data-name="Group 147">
              <path id="Path_118" data-name="Path 118" d="M1410.287,6233.03c.135,0,.245-4.8.245-10.729s-.11-10.731-.245-10.731-.246,4.8-.246,10.731S1410.151,6233.03,1410.287,6233.03Z" transform="translate(-1410.041 -6211.571)" fill="#1a2e35"/>
            </g>
          </g>
        </g>
        <g id="Group_152" data-name="Group 152" transform="translate(18.366 26.475)">
          <g id="Group_151" data-name="Group 151">
            <g id="Group_150" data-name="Group 150">
              <path id="Path_119" data-name="Path 119" d="M1363.3,6224.983a76.5,76.5,0,0,0,0-12.269,76.539,76.539,0,0,0,0,12.269Z" transform="translate(-1363.056 -6212.715)" fill="#1a2e35"/>
            </g>
          </g>
        </g>
        <g id="Group_153" data-name="Group 153" transform="translate(13.563 70.209)">
          <path id="Path_120" data-name="Path 120" d="M1411.754,6273.547c.893-.15,1.388,1.187.9,1.952a4.381,4.381,0,0,1-2.27,1.4c-2.873,1.146-5.232,3.279-7.949,4.757-5.787,3.149-12.765,3.12-19.3,2.313a36.461,36.461,0,0,1-10.822-2.713,16.546,16.546,0,0,1-8.1-7.418c-.9-1.842-1.371-3.908-2.539-5.594-.77-1.113-1.813-2.012-2.624-3.1a4.526,4.526,0,0,1-1.034-3.779c.361-1.3,2-2.253,3.142-1.532" transform="translate(-1357.907 -6259.588)" fill="#53a8dd"/>
        </g>
        <g id="Group_155" data-name="Group 155" transform="translate(22.357 73.964)" opacity="0.3">
          <g id="Group_154" data-name="Group 154">
            <path id="Path_121" data-name="Path 121" d="M1389.049,6280.928a20.716,20.716,0,0,1-11.836-5.669,39.835,39.835,0,0,1-7.842-10.738c-.287-.539-.906-1.17-1.386-.793a.984.984,0,0,0-.288.52,10.588,10.588,0,0,0,2.147,9.411,17.284,17.284,0,0,0,8.322,5.354,49.216,49.216,0,0,0,9.864,1.767" transform="translate(-1367.333 -6263.613)"/>
          </g>
        </g>
        <g id="Group_157" data-name="Group 157" transform="translate(13.739 7.732)">
          <g id="Group_156" data-name="Group 156">
            <path id="Path_122" data-name="Path 122" d="M1414.851,6193.672c.007,0-.01.054-.052.149a2.936,2.936,0,0,1-.211.412,5.376,5.376,0,0,1-1.157,1.357,7.115,7.115,0,0,1-2.492,1.326,9.224,9.224,0,0,1-3.729.268,18.769,18.769,0,0,1-4.374-1.146c-1.521-.562-3.1-1.271-4.809-1.822a19.784,19.784,0,0,0-11.5-.17,30.052,30.052,0,0,0-5.56,2.412,17.167,17.167,0,0,1-5.406,1.936,11.12,11.12,0,0,1-5.159-.657,32.625,32.625,0,0,1-4.105-1.874,35.7,35.7,0,0,0-5.887-2.687c-1.462-.439-2.319-.485-2.311-.544a3.207,3.207,0,0,1,.618.04,10.88,10.88,0,0,1,1.745.33,32.428,32.428,0,0,1,5.986,2.567,33.494,33.494,0,0,0,4.081,1.8,10.8,10.8,0,0,0,4.976.6,16.9,16.9,0,0,0,5.256-1.918,30.064,30.064,0,0,1,5.637-2.452,20.011,20.011,0,0,1,11.765.21c1.741.574,3.312,1.3,4.813,1.869a18.768,18.768,0,0,0,4.277,1.181,9.1,9.1,0,0,0,3.616-.19,7.108,7.108,0,0,0,2.45-1.218A6.976,6.976,0,0,0,1414.851,6193.672Z" transform="translate(-1358.096 -6192.626)" fill="#e0e0e0"/>
          </g>
        </g>
        <g id="Group_159" data-name="Group 159" transform="translate(18.859 27.193)">
          <g id="Group_158" data-name="Group 158">
            <path id="Path_123" data-name="Path 123" d="M1406.711,6216.985c0,.051-.628.1-1.743.331a43.088,43.088,0,0,0-4.646,1.3,36.285,36.285,0,0,1-6.981,1.794,12.631,12.631,0,0,1-4.289-.22,17.091,17.091,0,0,1-4.255-1.748c-2.732-1.533-5.188-3.242-7.755-4a16.627,16.627,0,0,0-7.031-.362,37.6,37.6,0,0,0-4.71,1.025l-1.267.353a1.772,1.772,0,0,1-.451.1,1.67,1.67,0,0,1,.422-.188c.281-.109.7-.255,1.244-.437a31.468,31.468,0,0,1,4.713-1.178,16.553,16.553,0,0,1,7.2.276c2.663.766,5.162,2.5,7.858,4.006a16.969,16.969,0,0,0,4.137,1.712,12.386,12.386,0,0,0,4.136.236,38.237,38.237,0,0,0,6.928-1.681,34.927,34.927,0,0,1,4.713-1.164,11.2,11.2,0,0,1,1.314-.146A1.727,1.727,0,0,1,1406.711,6216.985Z" transform="translate(-1363.584 -6213.484)" fill="#e0e0e0"/>
          </g>
        </g>
        <g id="Group_161" data-name="Group 161" transform="translate(62.61 40.247)">
          <g id="Group_160" data-name="Group 160">
            <path id="Path_124" data-name="Path 124" d="M1428.4,6227.8a8.607,8.607,0,0,0-2.732.1,12.372,12.372,0,0,0-2.788,1.03c-1.014.5-2.1,1.134-3.313,1.679a9.237,9.237,0,0,1-3.664.888,8.443,8.443,0,0,1-3.038-.5,7.652,7.652,0,0,1-1.831-.963c-.4-.286-.578-.488-.562-.507a16.956,16.956,0,0,0,2.5,1.158,8.718,8.718,0,0,0,2.919.386,9.2,9.2,0,0,0,3.486-.884c1.185-.529,2.274-1.154,3.316-1.64a11.453,11.453,0,0,1,2.913-.966,5.946,5.946,0,0,1,2.074-.013A1.716,1.716,0,0,1,1428.4,6227.8Z" transform="translate(-1410.476 -6227.476)" fill="#e0e0e0"/>
          </g>
        </g>
        <g id="Group_163" data-name="Group 163" transform="translate(6.482 31.348)">
          <g id="Group_162" data-name="Group 162">
            <path id="Path_125" data-name="Path 125" d="M1362.314,6219.83a6.154,6.154,0,0,0-1.811-.325,7.758,7.758,0,0,0-1.973.314c-.739.2-1.549.476-2.457.629a5.885,5.885,0,0,1-4.485-1.064,3.365,3.365,0,0,1-1.266-1.442c.066-.055.489.555,1.454,1.17a5.974,5.974,0,0,0,4.221.875c.856-.143,1.664-.408,2.428-.585a7.072,7.072,0,0,1,2.088-.227A2.487,2.487,0,0,1,1362.314,6219.83Z" transform="translate(-1350.319 -6217.938)" fill="#e0e0e0"/>
          </g>
        </g>
        <g id="Group_165" data-name="Group 165" transform="translate(14.869 67.72)">
          <g id="Group_164" data-name="Group 164">
            <path id="Path_126" data-name="Path 126" d="M1410.7,6258.51c-.01.053-.761-.152-2.145-.211a16.816,16.816,0,0,0-5.76.89,57.857,57.857,0,0,0-7.991,3.487,45.583,45.583,0,0,1-4.777,2.035,19.084,19.084,0,0,1-5.48,1.141,12.61,12.61,0,0,1-5.519-.98,26.059,26.059,0,0,1-4.517-2.593c-1.361-.936-2.626-1.853-3.86-2.629a18.281,18.281,0,0,0-3.618-1.768,10.256,10.256,0,0,0-5.727-.508,12.2,12.2,0,0,0-2,.774,5.469,5.469,0,0,1,1.953-.951,10.133,10.133,0,0,1,5.879.372,18.214,18.214,0,0,1,3.717,1.75c1.257.771,2.537,1.682,3.9,2.6a26.053,26.053,0,0,0,4.449,2.525,12.226,12.226,0,0,0,5.324.936c3.762-.191,7.133-1.717,10.09-3.1a54.573,54.573,0,0,1,8.08-3.414,20,20,0,0,1,3.31-.7,14.04,14.04,0,0,1,2.557-.054,9.749,9.749,0,0,1,1.595.239A2.559,2.559,0,0,1,1410.7,6258.51Z" transform="translate(-1359.308 -6256.921)" fill="#e0e0e0"/>
          </g>
        </g>
        <g id="Group_167" data-name="Group 167" transform="translate(16.846 77.606)">
          <g id="Group_166" data-name="Group 166">
            <path id="Path_127" data-name="Path 127" d="M1367.431,6269.021a6.08,6.08,0,0,0-6-.461c-.033-.044.225-.326.772-.6a4.624,4.624,0,0,1,4.56.35C1367.258,6268.664,1367.47,6268.983,1367.431,6269.021Z" transform="translate(-1361.426 -6267.516)" fill="#e0e0e0"/>
          </g>
        </g>
        <g id="Group_169" data-name="Group 169" transform="translate(33.654 84.589)">
          <g id="Group_168" data-name="Group 168">
            <path id="Path_128" data-name="Path 128" d="M1407.224,6280.713c-.052.011-.105-.43-.42-1.144a6.326,6.326,0,0,0-2.084-2.481,8.933,8.933,0,0,0-4.513-1.622,14.523,14.523,0,0,0-5.851,1.014c-2.012.73-3.854,1.638-5.585,2.365a24.172,24.172,0,0,1-4.752,1.536,11.753,11.753,0,0,1-3.366.193,6.91,6.91,0,0,1-.9-.149c-.2-.047-.309-.08-.306-.1a14.83,14.83,0,0,0,4.51-.272,25.936,25.936,0,0,0,4.649-1.606c1.706-.742,3.55-1.667,5.6-2.41a14.513,14.513,0,0,1,6.045-1,9.043,9.043,0,0,1,4.676,1.786,6.161,6.161,0,0,1,2.054,2.677,4.223,4.223,0,0,1,.228.893C1407.232,6280.6,1407.239,6280.711,1407.224,6280.713Z" transform="translate(-1379.441 -6275.001)" fill="#e0e0e0"/>
          </g>
        </g>
        <g id="Group_171" data-name="Group 171" transform="translate(22.731 80.245)">
          <g id="Group_170" data-name="Group 170">
            <path id="Path_129" data-name="Path 129" d="M1367.737,6270.345c.047-.016.215.637.78,1.7a13.038,13.038,0,0,0,3.21,3.87c3.257,2.828,9.183,4.6,15.687,5.053a27,27,0,0,0,9.113-.984,45.2,45.2,0,0,0,7.037-2.706c1.945-.924,3.491-1.736,4.565-2.286l1.24-.628a1.943,1.943,0,0,1,.448-.192,1.9,1.9,0,0,1-.4.274l-1.2.707c-1.048.6-2.571,1.458-4.507,2.423a42.662,42.662,0,0,1-7.064,2.823,26.821,26.821,0,0,1-9.256,1.037,38.984,38.984,0,0,1-9.164-1.688,18.95,18.95,0,0,1-6.71-3.581,12.514,12.514,0,0,1-3.159-4.04,8.954,8.954,0,0,1-.51-1.3A1.92,1.92,0,0,1,1367.737,6270.345Z" transform="translate(-1367.734 -6270.345)" fill="#1a2e35"/>
          </g>
        </g>
      </g>
      <g id="Group_174" data-name="Group 174" transform="translate(22.538 55.943)" opacity="0.3">
        <g id="Group_173" data-name="Group 173">
          <path id="Path_130" data-name="Path 130" d="M1411.628,6253.627c-2.044.309-4.208-.777-6.1-1.608s-4.191-1.436-5.941-.333a20.787,20.787,0,0,0-2.215,2.081c-2.073,1.778-5.111,1.74-7.824,1.429a125.53,125.53,0,0,1-18.879-4.167c-.609-.168-3.141-1.12-3.141-1.12l2.781-.634,2.554-.8,1.951-.42,19.186,2.938s1.312-1.379,1.312-1.42l-4.352-5.27c6.318,2.792,20.273,9.1,20.658,9.059" transform="translate(-1367.527 -6244.299)"/>
        </g>
      </g>
    </g>
    <g id="Group_207" data-name="Group 207" transform="translate(1341.27 6217.327)">
      <g id="Group_177" data-name="Group 177" transform="translate(23.406 1.643)">
        <g id="Group_176" data-name="Group 176">
          <path id="Path_131" data-name="Path 131" d="M1370.18,6228.386l.583-.437a13.421,13.421,0,0,1,10.575-2.444h0a18.4,18.4,0,0,1,8.235,3.866l4.6,3.791-4.9,8.772-3.332-4.664s-3.109,4.22-3.664,3.776a7.152,7.152,0,0,1-1.222-1.776l2.221-3.11-5.33,1.11-7.773-3.553,3.331-4.22-3.331,1.11Z" transform="translate(-1370.18 -6225.265)" fill="#ffbe9c"/>
        </g>
      </g>
      <g id="Group_180" data-name="Group 180" transform="translate(42.167 8.903)">
        <g id="Group_179" data-name="Group 179">
          <g id="Group_178" data-name="Group 178">
            <path id="Path_132" data-name="Path 132" d="M1413.735,6252.872a2.222,2.222,0,0,0-.435-.242c-.335-.164-.76-.371-1.287-.625l-4.822-2.253-16.466-7.516.111.337,3.153-5.637c.671-1.2,1.331-2.387,1.958-3.51l-.238.123,19.686,1.932,5.851.523,1.581.119a2.526,2.526,0,0,0,.552.011,2.491,2.491,0,0,0-.543-.1l-1.572-.2-5.836-.671-19.669-2.093-.16-.017-.078.141-1.961,3.508-3.144,5.642-.128.23.24.107,16.535,7.361c2.037.886,3.685,1.6,4.881,2.123l1.32.551A2.1,2.1,0,0,0,1413.735,6252.872Z" transform="translate(-1390.288 -6233.046)" fill="#1a2e35"/>
          </g>
        </g>
      </g>
      <g id="Group_183" data-name="Group 183" transform="translate(9.287 17.341)">
        <g id="Group_182" data-name="Group 182">
          <g id="Group_181" data-name="Group 181">
            <path id="Path_133" data-name="Path 133" d="M1360.352,6242.248a2.46,2.46,0,0,0-.816-.128,7.492,7.492,0,0,0-2.266.136,2.687,2.687,0,0,0-1.422.8,3.718,3.718,0,0,0-.743,1.711,3.986,3.986,0,0,0,.183,2.048,3.821,3.821,0,0,0,1.36,1.744,10.175,10.175,0,0,0,3.892,1.389,17.751,17.751,0,0,0,3.332.323,6.028,6.028,0,0,0,3.023-.527,15.824,15.824,0,0,1-3.016.179,20.136,20.136,0,0,1-3.249-.419,10.27,10.27,0,0,1-3.694-1.343,3.5,3.5,0,0,1-.775-4.844,2.382,2.382,0,0,1,1.2-.729,8.983,8.983,0,0,1,2.169-.281A2.974,2.974,0,0,0,1360.352,6242.248Z" transform="translate(-1355.048 -6242.09)" fill="#1a2e35"/>
          </g>
        </g>
      </g>
      <g id="Group_186" data-name="Group 186" transform="translate(10.135 25.277)">
        <g id="Group_185" data-name="Group 185">
          <g id="Group_184" data-name="Group 184">
            <path id="Path_134" data-name="Path 134" d="M1355.957,6255.809a5.684,5.684,0,0,0,1.93.229,12.28,12.28,0,0,0,4.642-.771,10.028,10.028,0,0,0,2.31-1.229,5.564,5.564,0,0,0,1.428-1.613,4.234,4.234,0,0,0,.688-1.828c-.078-.033-.332.673-.982,1.64a5.767,5.767,0,0,1-1.4,1.436,10.864,10.864,0,0,1-2.221,1.135,14.494,14.494,0,0,1-4.469.881A11.594,11.594,0,0,0,1355.957,6255.809Z" transform="translate(-1355.957 -6250.596)" fill="#1a2e35"/>
          </g>
        </g>
      </g>
      <g id="Group_189" data-name="Group 189" transform="translate(4.764 7.207)">
        <g id="Group_188" data-name="Group 188">
          <g id="Group_187" data-name="Group 187">
            <path id="Path_135" data-name="Path 135" d="M1350.2,6231.233a9.245,9.245,0,0,0,1.325,1.593c.864.947,2.08,2.233,3.444,3.631s2.619,2.648,3.544,3.535a1.044,1.044,0,1,0,.249-.244c-.861-.948-2.077-2.235-3.441-3.635A47.648,47.648,0,0,0,1350.2,6231.233Z" transform="translate(-1350.2 -6231.229)" fill="#1a2e35"/>
          </g>
        </g>
      </g>
      <g id="Group_191" data-name="Group 191" transform="translate(5.886)">
        <g id="Group_190" data-name="Group 190">
          <path id="Path_136" data-name="Path 136" d="M1377.129,6227.464l17.1,20.712-1.311,1.42-27.754-4.231-13.763-20.711,1.277-1.15Z" transform="translate(-1351.402 -6223.504)" fill="#1a2e35"/>
        </g>
      </g>
      <g id="Group_193" data-name="Group 193" transform="translate(13.471 9.426)">
        <g id="Group_192" data-name="Group 192">
          <path id="Path_137" data-name="Path 137" d="M1359.532,6233.607h0a2.639,2.639,0,0,1,2.467,1.686,5.7,5.7,0,0,0,1.681,2.688c1.234.673,3.364,1.209,4.485.661s5.605-4.585,6.391-4.137,1.457,1.458.673,2.354-4.934,3.588-4.149,4.485,9.531-3.051,10.876-2.7,2.13,1.176,1.345,1.715-6.727,2.781-7.064,3.567c0,0,8.97-2.355,9.307-1.794s.9,1.457,0,1.794-8.634,2.354-9.307,2.69a16.294,16.294,0,0,1-3.458,1.009,36.814,36.814,0,0,0-3.613,1.146,7.917,7.917,0,0,1-5.578-.149l-.909-.371a3.559,3.559,0,0,1-2.21-3.51l.183-3.059-.978-2.522Z" transform="translate(-1359.532 -6233.607)" fill="#ffbe9c"/>
        </g>
      </g>
      <g id="Group_196" data-name="Group 196" transform="translate(5.849 1.246)">
        <g id="Group_195" data-name="Group 195">
          <g id="Group_194" data-name="Group 194">
            <path id="Path_138" data-name="Path 138" d="M1351.363,6224.848a2.109,2.109,0,0,0,.512.125l1.484.263,5.47.879,8.122,1.24,4.791.725a9.159,9.159,0,0,1,4.645,1.882,31.031,31.031,0,0,1,3.385,3.887l3.035,3.785,5.162,6.393c1.451,1.767,2.64,3.217,3.514,4.283l.975,1.148a2.148,2.148,0,0,0,.366.38,2.071,2.071,0,0,0-.288-.441c-.239-.32-.537-.718-.9-1.206l-3.391-4.381-5.08-6.458c-.962-1.213-1.969-2.486-3.013-3.8a30.682,30.682,0,0,0-3.444-3.963,9.583,9.583,0,0,0-4.882-1.98l-4.807-.7-8.137-1.136-5.493-.724-1.5-.172A2.063,2.063,0,0,0,1351.363,6224.848Z" transform="translate(-1351.363 -6224.839)" fill="#375a64"/>
          </g>
        </g>
      </g>
      <g id="Group_198" data-name="Group 198" transform="translate(18.029 5.792)">
        <g id="Group_197" data-name="Group 197">
          <path id="Path_139" data-name="Path 139" d="M1365.219,6229.712a2.337,2.337,0,0,1,.769.624.8.8,0,0,1,.033.931.858.858,0,0,1-1.144.019,1.115,1.115,0,0,1-.445-.663.785.785,0,0,1,.238-.742.61.61,0,0,1,.753-.03" transform="translate(-1364.418 -6229.712)" fill="#f9f9f9"/>
        </g>
      </g>
      <g id="Group_200" data-name="Group 200" transform="translate(4.341 5.409)" opacity="0.3">
        <g id="Group_199" data-name="Group 199">
          <path id="Path_140" data-name="Path 140" d="M1359.543,6240.812c-3.111-2.888-5.656-5.83-8.767-8.718-.634-.589-1.323-1.469-.9-2.223a1.3,1.3,0,0,1,1.266-.562,3.272,3.272,0,0,1,1.346.546c3.747,2.31,5.127,7.084,7.052,10.958" transform="translate(-1349.747 -6229.301)"/>
        </g>
      </g>
      <g id="Group_202" data-name="Group 202" transform="translate(63.844 11.276)">
        <g id="Group_201" data-name="Group 201">
          <path id="Path_141" data-name="Path 141" d="M1413.53,6251.841a1.3,1.3,0,0,1,.192-.686,6.211,6.211,0,0,1,1.167-1.537,8.836,8.836,0,0,0,1.687-2.175,8.944,8.944,0,0,0,.935-3.214,17.1,17.1,0,0,0-.708-6.117,17.521,17.521,0,0,1-.633-2.523,12.165,12.165,0,0,1,.952,2.43,15.425,15.425,0,0,1,.855,6.26,8.9,8.9,0,0,1-1.02,3.369,8.443,8.443,0,0,1-1.832,2.2,7.567,7.567,0,0,0-1.243,1.392C1413.648,6251.616,1413.568,6251.853,1413.53,6251.841Z" transform="translate(-1413.522 -6235.589)" fill="#e0e0e0"/>
        </g>
      </g>
      <g id="Group_204" data-name="Group 204" transform="translate(47.687 10.362)">
        <g id="Group_203" data-name="Group 203">
          <path id="Path_142" data-name="Path 142" d="M1402.492,6234.61a4.306,4.306,0,0,1,.191,1.891,9.172,9.172,0,0,1-4.7,7.551,4.285,4.285,0,0,1-1.78.664c-.027-.072.65-.325,1.61-.948a9.934,9.934,0,0,0,4.537-7.294C1402.487,6235.337,1402.415,6234.617,1402.492,6234.61Z" transform="translate(-1396.205 -6234.61)" fill="#e0e0e0"/>
        </g>
      </g>
      <g id="Group_206" data-name="Group 206" transform="translate(0 13.992)">
        <g id="Group_205" data-name="Group 205">
          <path id="Path_143" data-name="Path 143" d="M1355.451,6238.5a1.235,1.235,0,0,1,.109.636,3.762,3.762,0,0,1-.425,1.714,4.092,4.092,0,0,1-1.888,1.834,9.38,9.38,0,0,1-3.139.491,5.216,5.216,0,0,0-2.727,1.141,5.99,5.99,0,0,0-1.554,1.9,9.5,9.5,0,0,0-.68,2.2,1.406,1.406,0,0,1-.047-.641,4.817,4.817,0,0,1,.428-1.7,5.909,5.909,0,0,1,1.58-2.087,5.451,5.451,0,0,1,2.949-1.272,9.936,9.936,0,0,0,3.015-.42,3.924,3.924,0,0,0,1.774-1.6A5.349,5.349,0,0,0,1355.451,6238.5Z" transform="translate(-1345.094 -6238.501)" fill="#e0e0e0"/>
        </g>
      </g>
    </g>
  </g>
</svg>
