<svg xmlns="http://www.w3.org/2000/svg" width="22.241" height="22.241" viewBox="0 0 22.241 22.241">
  <g id="Group_166" data-name="Group 166" transform="translate(-401 -5749.992)">
    <path id="Path_216" data-name="Path 216" d="M412.4,5981.151a11.122,11.122,0,1,1-7.864,3.258,11.075,11.075,0,0,1,7.864-3.258m7.253,3.873a10.264,10.264,0,1,0,3,7.247,10.241,10.241,0,0,0-3-7.247" transform="translate(-0.275 -231.159)" fill="#22963f"/>
    <path id="Path_217" data-name="Path 217" d="M413.245,5990v-.911a.477.477,0,0,1,.5-.542h1.274V5986.6h-1.754a2.207,2.207,0,0,0-2.39,2.377V5990h-1.132v2.271h1.145v5.678h2.272v-5.678h1.681l.074-.892.135-1.379Z" transform="translate(-0.275 -231.159)" fill="#22963f" fill-rule="evenodd"/>
  </g>
</svg>
