<svg xmlns="http://www.w3.org/2000/svg" width="283.926" height="210.825" viewBox="0 0 283.926 210.825">
  <g id="Group_851" data-name="Group 851" transform="translate(-96.632 -346.156)">
    <g id="Group_847" data-name="Group 847" transform="translate(96.632 498.294)">
      <path id="Path_4305" data-name="Path 4305" d="M126.126,413.363h-.6l-7.429,16.928h-5.958l-7.557-16.928h-.606v16.928H96.632V402.224h10.236l7.857,17.7h.737l7.9-17.7h10.1v28.067h-7.341Z" transform="translate(-96.632 -401.403)" fill="#121313"/>
      <path id="Path_4306" data-name="Path 4306" d="M112.135,402.224h25.786v6.389H119.476v4.449h14.986v6.389H119.476v4.45h18.529v6.389H112.135Z" transform="translate(-69.841 -401.403)" fill="#121313"/>
      <path id="Path_4307" data-name="Path 4307" d="M146.758,402.224h8.722l12.181,28.067h-8.293l-1.858-4.578H144.728l-1.858,4.578h-8.064Zm.562,17.1h7.6l-3.5-8.637h-.647Z" transform="translate(-30.663 -401.403)" fill="#121313"/>
      <path id="Path_4308" data-name="Path 4308" d="M178.748,402.224h8.725l12.178,28.067h-8.294l-1.858-4.578H176.718l-1.855,4.578H166.8Zm.562,17.1h7.6l-3.5-8.637h-.649Z" transform="translate(24.625 -401.403)" fill="#121313"/>
      <path id="Path_4309" data-name="Path 4309" d="M145.159,402.224h27.409v6.389H162.534v21.678h-7.341V408.613H145.159Z" transform="translate(-12.772 -401.403)" fill="#121313"/>
      <path id="Path_4310" data-name="Path 4310" d="M156.4,402.224h18.117c5.786,0,10.061,3.367,10.061,8.766a8.369,8.369,0,0,1-5.743,8.119v.259l5.459,10.923h-9.251l-4.155-9.715H163.74v9.715H156.4Zm7.341,6.823v4.706h10.776c1.64,0,2.72-.865,2.72-2.376,0-1.468-1.08-2.33-2.72-2.33Z" transform="translate(6.652 -401.403)" fill="#121313"/>
      <path id="Path_4311" data-name="Path 4311" d="M179.354,402.224H193.39c8.722,0,15.417,5.224,15.417,13.99s-6.695,14.077-15.417,14.077H179.354Zm7.341,6.389V423.9h6.695c4.578,0,7.944-2.764,7.944-7.688s-3.366-7.6-7.944-7.6Z" transform="translate(46.321 -401.403)" fill="#121313"/>
      <path id="Path_4312" data-name="Path 4312" d="M191.223,402.224h25.783v6.389H198.564v4.449h14.983v6.389H198.564v4.45h18.529v6.389H191.223Z" transform="translate(66.832 -401.403)" fill="#121313"/>
      <path id="Path_4313" data-name="Path 4313" d="M140.454,421.786h4.534a8.336,8.336,0,0,1-6.651,2.72c-5.009,0-8.332-2.935-8.332-7.9,0-4.881,3.366-7.816,8.463-7.86,3.476,0,6.084,1.514,7.287,4.188h7.827v-1.252c-2.248-7-7.161-9.759-15.07-9.759-9.2,0-15.979,5.7-15.979,14.683s6.3,14.724,14.9,14.724c4.8,0,8.435-1.367,9.974-6.266v5.748h6.91V415.785H140.454Z" transform="translate(-51.872 -401.923)" fill="#121313"/>
    </g>
    <g id="Group_848" data-name="Group 848" transform="translate(129.683 538.441)">
      <path id="Path_4314" data-name="Path 4314" d="M116.719,418.833a4.7,4.7,0,0,1,1.85,1.861,5.953,5.953,0,0,1,0,5.492,4.73,4.73,0,0,1-1.839,1.861,5.307,5.307,0,0,1-2.649.657,4.882,4.882,0,0,1-2.273-.521,4.279,4.279,0,0,1-1.661-1.525v5.767h-1.4V418.252h1.34V420.3a4.287,4.287,0,0,1,1.664-1.574,4.859,4.859,0,0,1,2.33-.551A5.317,5.317,0,0,1,116.719,418.833Zm-.767,8.13a3.545,3.545,0,0,0,1.386-1.427,4.338,4.338,0,0,0,.5-2.106,4.266,4.266,0,0,0-.5-2.1,3.639,3.639,0,0,0-1.386-1.43,4.074,4.074,0,0,0-3.948,0,3.675,3.675,0,0,0-1.378,1.43,4.3,4.3,0,0,0-.5,2.1,4.369,4.369,0,0,0,.5,2.106A3.579,3.579,0,0,0,112,426.963a4.133,4.133,0,0,0,3.948,0Z" transform="translate(-108.747 -413.983)" fill="#121313"/>
      <path id="Path_4315" data-name="Path 4315" d="M116.826,418.705a4.98,4.98,0,0,1,2.412-.529v1.356l-.336-.019a3.311,3.311,0,0,0-2.559,1,4,4,0,0,0-.925,2.815v5.273h-1.4V418.252h1.34v2.03A3.387,3.387,0,0,1,116.826,418.705Z" transform="translate(-99.633 -413.983)" fill="#121313"/>
      <path id="Path_4316" data-name="Path 4316" d="M119.305,428.025a4.92,4.92,0,0,1-1.891-1.877,5.714,5.714,0,0,1,0-5.434,4.863,4.863,0,0,1,1.891-1.869,5.775,5.775,0,0,1,5.393,0,4.818,4.818,0,0,1,1.88,1.869,5.795,5.795,0,0,1,0,5.434,4.873,4.873,0,0,1-1.88,1.877,5.692,5.692,0,0,1-5.393,0Zm4.673-1.061a3.524,3.524,0,0,0,1.37-1.427,4.762,4.762,0,0,0,0-4.212,3.524,3.524,0,0,0-1.37-1.427,4.148,4.148,0,0,0-3.956,0,3.578,3.578,0,0,0-1.378,1.427,4.67,4.67,0,0,0,0,4.212,3.579,3.579,0,0,0,1.378,1.427,4.149,4.149,0,0,0,3.956,0Z" transform="translate(-94.957 -413.983)" fill="#121313"/>
      <path id="Path_4317" data-name="Path 4317" d="M121.606,435.013a2.413,2.413,0,0,1-.955-.5l.494-1.064a2.364,2.364,0,0,0,1.612.532,1.629,1.629,0,0,0,1.271-.491,2.124,2.124,0,0,0,.442-1.457V420.909h1.4v11.123a3.251,3.251,0,0,1-.786,2.3,2.917,2.917,0,0,1-2.245.846A4.411,4.411,0,0,1,121.606,435.013Zm2.845-16.682a.962.962,0,0,1-.295-.707.944.944,0,0,1,.295-.69.989.989,0,0,1,.728-.295,1.022,1.022,0,0,1,.728.284.916.916,0,0,1,.295.679,1.028,1.028,0,0,1-1.751.728Z" transform="translate(-88.176 -416.639)" fill="#121313"/>
      <path id="Path_4318" data-name="Path 4318" d="M134.332,423.864H125.67a3.708,3.708,0,0,0,1.241,2.608,4.125,4.125,0,0,0,2.835.993,4.473,4.473,0,0,0,1.771-.344,3.848,3.848,0,0,0,1.4-1.015l.788.906a4.451,4.451,0,0,1-1.724,1.26,5.806,5.806,0,0,1-2.273.431,5.743,5.743,0,0,1-2.824-.679,4.888,4.888,0,0,1-1.921-1.877,5.378,5.378,0,0,1-.687-2.717,5.534,5.534,0,0,1,.66-2.717,4.77,4.77,0,0,1,1.809-1.869,5.051,5.051,0,0,1,2.589-.668,4.99,4.99,0,0,1,2.578.668A4.745,4.745,0,0,1,133.7,420.7a5.591,5.591,0,0,1,.649,2.725Zm-7.51-3.533a3.744,3.744,0,0,0-1.151,2.488h7.341a3.732,3.732,0,0,0-1.151-2.488,3.8,3.8,0,0,0-5.039,0Z" transform="translate(-81.916 -413.983)" fill="#121313"/>
      <path id="Path_4319" data-name="Path 4319" d="M131.693,428.036a4.838,4.838,0,0,1-1.9-1.88,5.73,5.73,0,0,1,0-5.443,4.866,4.866,0,0,1,1.9-1.869,5.574,5.574,0,0,1,2.747-.668,5.288,5.288,0,0,1,2.39.521,3.957,3.957,0,0,1,1.664,1.525l-1.042.709a3.244,3.244,0,0,0-1.3-1.151,3.859,3.859,0,0,0-1.713-.385,4.052,4.052,0,0,0-2.019.5,3.535,3.535,0,0,0-1.4,1.427,4.692,4.692,0,0,0,0,4.223,3.559,3.559,0,0,0,1.4,1.416,4.053,4.053,0,0,0,2.019.5,3.964,3.964,0,0,0,1.713-.374,3.182,3.182,0,0,0,1.3-1.143l1.042.709a3.946,3.946,0,0,1-1.672,1.525,5.317,5.317,0,0,1-2.382.521A5.574,5.574,0,0,1,131.693,428.036Z" transform="translate(-73.563 -413.983)" fill="#121313"/>
      <path id="Path_4320" data-name="Path 4320" d="M140.545,429.36a2.681,2.681,0,0,1-.974.543,3.9,3.9,0,0,1-1.211.186,3.045,3.045,0,0,1-2.245-.786,3.009,3.009,0,0,1-.786-2.224v-6.261h-1.85v-1.181h1.85v-2.262h1.4v2.262h3.148v1.181h-3.148V427a1.959,1.959,0,0,0,.464,1.408,1.751,1.751,0,0,0,1.329.48,2.538,2.538,0,0,0,.835-.136,2.1,2.1,0,0,0,.7-.393Z" transform="translate(-66.007 -415.367)" fill="#121313"/>
      <path id="Path_4321" data-name="Path 4321" d="M150.606,416.646v14.6h-1.337V429.2A4.24,4.24,0,0,1,147.6,430.8a4.862,4.862,0,0,1-2.333.551,5.229,5.229,0,0,1-2.635-.668,4.785,4.785,0,0,1-1.852-1.869,5.936,5.936,0,0,1,0-5.473,4.728,4.728,0,0,1,1.852-1.861,5.307,5.307,0,0,1,2.635-.657,4.885,4.885,0,0,1,2.275.521,4.317,4.317,0,0,1,1.661,1.525v-6.22Zm-3.257,12.961a3.561,3.561,0,0,0,1.378-1.427,4.67,4.67,0,0,0,0-4.212,3.561,3.561,0,0,0-1.378-1.427,3.853,3.853,0,0,0-1.956-.5,3.9,3.9,0,0,0-1.981.5,3.578,3.578,0,0,0-1.378,1.427,4.669,4.669,0,0,0,0,4.212,3.579,3.579,0,0,0,1.378,1.427,3.9,3.9,0,0,0,1.981.5A3.854,3.854,0,0,0,147.348,429.607Z" transform="translate(-54.538 -416.627)" fill="#121313"/>
      <path id="Path_4322" data-name="Path 4322" d="M146.327,418.34a.973.973,0,0,1-.295-.709.948.948,0,0,1,.295-.69.989.989,0,0,1,.728-.295,1,1,0,0,1,.728.286.912.912,0,0,1,.295.679,1.03,1.03,0,0,1-1.751.728Zm.019,2.556h1.4V431.25h-1.4Z" transform="translate(-44.314 -416.627)" fill="#121313"/>
      <path id="Path_4323" data-name="Path 4323" d="M150.214,428.341a5.191,5.191,0,0,1-1.8-.917l.63-1.1a5.249,5.249,0,0,0,1.634.835,6.5,6.5,0,0,0,2.046.325,3.913,3.913,0,0,0,2.1-.442,1.408,1.408,0,0,0,.679-1.249,1.132,1.132,0,0,0-.374-.9,2.5,2.5,0,0,0-.944-.491,13.779,13.779,0,0,0-1.517-.325,17.6,17.6,0,0,1-2.027-.483,3,3,0,0,1-1.31-.835,2.334,2.334,0,0,1-.54-1.634A2.555,2.555,0,0,1,149.87,419a4.856,4.856,0,0,1,3.012-.827,7.787,7.787,0,0,1,2.005.265,5.522,5.522,0,0,1,1.656.7l-.611,1.121a5.238,5.238,0,0,0-3.05-.884,3.526,3.526,0,0,0-2.019.472,1.445,1.445,0,0,0-.679,1.239,1.225,1.225,0,0,0,.385.947,2.379,2.379,0,0,0,.955.521,15.1,15.1,0,0,0,1.574.344,18.867,18.867,0,0,1,1.989.472,2.955,2.955,0,0,1,1.28.808,2.233,2.233,0,0,1,.529,1.574,2.506,2.506,0,0,1-1.129,2.155,5.385,5.385,0,0,1-3.14.8A7.943,7.943,0,0,1,150.214,428.341Z" transform="translate(-40.2 -413.983)" fill="#121313"/>
      <path id="Path_4324" data-name="Path 4324" d="M159.793,429.36a2.637,2.637,0,0,1-.974.543,3.9,3.9,0,0,1-1.211.186,2.741,2.741,0,0,1-3.031-3.009v-6.261h-1.85v-1.181h1.85v-2.262h1.4v2.262h3.148v1.181h-3.148V427a1.958,1.958,0,0,0,.461,1.408,1.751,1.751,0,0,0,1.329.48,2.554,2.554,0,0,0,.837-.136,2.129,2.129,0,0,0,.7-.393Z" transform="translate(-32.744 -415.367)" fill="#121313"/>
      <path id="Path_4325" data-name="Path 4325" d="M159.717,418.705a4.973,4.973,0,0,1,2.412-.529v1.356l-.336-.019a3.311,3.311,0,0,0-2.559,1,4,4,0,0,0-.925,2.815v5.273h-1.4V418.252h1.337v2.03A3.392,3.392,0,0,1,159.717,418.705Z" transform="translate(-25.512 -413.983)" fill="#121313"/>
      <path id="Path_4326" data-name="Path 4326" d="M160.778,418.34a.973.973,0,0,1-.295-.709.948.948,0,0,1,.295-.69.989.989,0,0,1,.728-.295,1,1,0,0,1,.728.286.912.912,0,0,1,.295.679,1.03,1.03,0,0,1-1.751.728Zm.019,2.556h1.4V431.25h-1.4Z" transform="translate(-19.341 -416.627)" fill="#121313"/>
      <path id="Path_4327" data-name="Path 4327" d="M171.362,421.477a4.728,4.728,0,0,1,1.852,1.861,5.936,5.936,0,0,1,0,5.473,4.785,4.785,0,0,1-1.852,1.869,5.236,5.236,0,0,1-2.635.668,4.862,4.862,0,0,1-2.333-.551,4.241,4.241,0,0,1-1.664-1.593v2.046h-1.34v-14.6h1.4v6.22a4.3,4.3,0,0,1,1.661-1.525,4.885,4.885,0,0,1,2.275-.521A5.314,5.314,0,0,1,171.362,421.477Zm-.767,8.13a3.569,3.569,0,0,0,1.389-1.427,4.669,4.669,0,0,0,0-4.212,3.569,3.569,0,0,0-1.389-1.427,4.132,4.132,0,0,0-3.948,0,3.578,3.578,0,0,0-1.378,1.427,4.67,4.67,0,0,0,0,4.212,3.579,3.579,0,0,0,1.378,1.427,4.133,4.133,0,0,0,3.948,0Z" transform="translate(-14.318 -416.627)" fill="#121313"/>
      <path id="Path_4328" data-name="Path 4328" d="M178.056,418.2v10.353h-1.34v-1.888a3.815,3.815,0,0,1-1.514,1.465,4.545,4.545,0,0,1-2.2.521,4,4,0,0,1-4.37-4.447v-6h1.4v5.865a3.457,3.457,0,0,0,.808,2.48,3.031,3.031,0,0,0,2.3.848,3.38,3.38,0,0,0,2.578-1,3.843,3.843,0,0,0,.947-2.764V418.2Z" transform="translate(-5.266 -413.934)" fill="#121313"/>
      <path id="Path_4329" data-name="Path 4329" d="M180.752,429.36a2.681,2.681,0,0,1-.974.543,3.9,3.9,0,0,1-1.211.186,3.046,3.046,0,0,1-2.245-.786,3.009,3.009,0,0,1-.786-2.224v-6.261h-1.85v-1.181h1.85v-2.262h1.4v2.262h3.148v1.181h-3.148V427a1.947,1.947,0,0,0,.464,1.408,1.751,1.751,0,0,0,1.329.48,2.538,2.538,0,0,0,.835-.136,2.1,2.1,0,0,0,.7-.393Z" transform="translate(3.475 -415.367)" fill="#121313"/>
      <path id="Path_4330" data-name="Path 4330" d="M178.05,418.34a.973.973,0,0,1-.295-.709.948.948,0,0,1,.295-.69.989.989,0,0,1,.728-.295,1.009,1.009,0,0,1,.728.286.912.912,0,0,1,.295.679,1.03,1.03,0,0,1-1.751.728Zm.019,2.556h1.4V431.25h-1.4Z" transform="translate(10.507 -416.627)" fill="#121313"/>
      <path id="Path_4331" data-name="Path 4331" d="M182.483,428.025a4.92,4.92,0,0,1-1.891-1.877,5.714,5.714,0,0,1,0-5.434,4.863,4.863,0,0,1,1.891-1.869,5.769,5.769,0,0,1,5.391,0,4.782,4.782,0,0,1,1.88,1.869,5.774,5.774,0,0,1,0,5.434,4.837,4.837,0,0,1-1.88,1.877,5.687,5.687,0,0,1-5.391,0Zm4.673-1.061a3.524,3.524,0,0,0,1.37-1.427,4.762,4.762,0,0,0,0-4.212,3.524,3.524,0,0,0-1.37-1.427,4.148,4.148,0,0,0-3.956,0,3.578,3.578,0,0,0-1.378,1.427,4.669,4.669,0,0,0,0,4.212,3.579,3.579,0,0,0,1.378,1.427,4.149,4.149,0,0,0,3.956,0Z" transform="translate(14.222 -413.983)" fill="#121313"/>
      <path id="Path_4332" data-name="Path 4332" d="M193.474,419.305a4.43,4.43,0,0,1,1.151,3.3v6h-1.4V422.74a3.427,3.427,0,0,0-.807-2.458,3.031,3.031,0,0,0-2.3-.848,3.544,3.544,0,0,0-2.649,1,3.752,3.752,0,0,0-.974,2.744v5.432h-1.4V418.252h1.34v1.91a3.872,3.872,0,0,1,1.582-1.465,5.057,5.057,0,0,1,2.354-.521A4.237,4.237,0,0,1,193.474,419.305Z" transform="translate(23.198 -413.983)" fill="#121313"/>
    </g>
    <g id="Group_850" data-name="Group 850" transform="translate(175.038 346.157)">
      <g id="Group_849" data-name="Group 849">
        <path id="Path_4333" data-name="Path 4333" d="M125.372,383.761h71.589l-63.071-26.127A63.523,63.523,0,0,0,125.372,383.761Z" transform="translate(-125.372 -326.322)" fill="#3f9618"/>
        <path id="Path_4334" data-name="Path 4334" d="M131.3,400.978q1.056,1.162,2.174,2.286a63.569,63.569,0,0,0,18.107,12.7l39.923-39.923Z" transform="translate(-115.126 -294.514)" fill="#3f9618"/>
        <path id="Path_4335" data-name="Path 4335" d="M196.961,371.8H125.372a63.458,63.458,0,0,0,8.517,26.125Z" transform="translate(-125.372 -301.842)" fill="#3f9618"/>
        <path id="Path_4336" data-name="Path 4336" d="M202.343,364.8a63.646,63.646,0,0,0-58.753-17.16l35.534,35.531-.12-.284,26.839,26.965-26.73,26.7.011-.022L143.59,472.066A63.705,63.705,0,0,0,202.343,364.8Z" transform="translate(-93.889 -346.156)" fill="#3f9618"/>
        <path id="Path_4337" data-name="Path 4337" d="M151.582,348.336a63.624,63.624,0,0,0-18.107,12.7q-1.121,1.125-2.174,2.289l60.2,24.938Z" transform="translate(-115.126 -342.39)" fill="#3f9618"/>
      </g>
    </g>
  </g>
</svg>
