<svg xmlns="http://www.w3.org/2000/svg" xmlns:xlink="http://www.w3.org/1999/xlink" width="484.172" height="454.492" viewBox="0 0 484.172 454.492">
  <defs>
    <clipPath id="clip-path">
      <rect id="Rectangle_354" data-name="Rectangle 354" width="454.492" height="484.172" fill="none"/>
    </clipPath>
    <linearGradient id="linear-gradient" x1="0.892" y1="0.786" x2="0.152" y2="0.247" gradientUnits="objectBoundingBox">
      <stop offset="0" stop-color="#45b2db"/>
      <stop offset="0.981" stop-color="#0057a2"/>
    </linearGradient>
  </defs>
  <g id="Group_655" data-name="Group 655" transform="translate(0 454.492) rotate(-90)">
    <g id="Group_654" data-name="Group 654" clip-path="url(#clip-path)">
      <g id="Group_653" data-name="Group 653" transform="translate(18.068 56.198)">
        <path id="Path_4157" data-name="Path 4157" d="M1606.431,859.13a284.533,284.533,0,0,1-11.632,49.489,278.014,278.014,0,0,1-21.778,49.172c-3.275,5.852-6.789,11.589-10.493,17.212a287.522,287.522,0,0,1-273.737,126.562c-8.783-1.09-17.528-2.571-26.109-4.446a288.014,288.014,0,0,1-78.175-29.547q-9.831-5.442-19.277-11.7c-6.831-4.451-13.469-9.251-19.908-14.324-3.743.153-10.221-8.276-12.722-10.575-5.226-4.806-10.259-9.8-15.179-14.913a312.953,312.953,0,0,1-27.046-32.664,284.219,284.219,0,0,1-36.336-68.3c-.7-1.951-1.406-3.945-2.065-5.9a18.356,18.356,0,0,1-.975-2.615l-.354-1.052a283.011,283.011,0,0,1-13.463-69.937c-.234-3.476-.392-6.908-.468-10.385a274.109,274.109,0,0,1,5.737-66.226,286.829,286.829,0,0,1,467.43-160.011,271.807,271.807,0,0,1,22.4,21.582,279.161,279.161,0,0,1,24.784,31.143,301.741,301.741,0,0,1,41.719,90.815,290.443,290.443,0,0,1,8.51,43.947A286.549,286.549,0,0,1,1606.431,859.13Z" transform="translate(-1036.534 -529.818)" fill="url(#linear-gradient)"/>
        <g id="Group_648" data-name="Group 648" transform="translate(0 16.327)">
          <g id="Group_647" data-name="Group 647">
            <path id="Path_4158" data-name="Path 4158" d="M1557.062,638.371c-65.6,36.88-140.969,60.026-209.145,89.682-16.313,7.181-34.93,15.5-52.845,19.086-43.713,8.663,1.444-19.979,1.444-30.947-19.2.431-40.472,14.635-57.564,22.911-22.6,11.044-44.885,22.164-67.752,32.31-44.416,19.712-86.1,42.269-134.021,50.856-.235-3.476-.387-6.909-.469-10.385a274.181,274.181,0,0,1,5.736-66.226A286.955,286.955,0,0,1,1117.5,603.6c29.116-14.286,58.506-28.141,87.7-42.345,18.029-8.859,57.018-34.113,77.623-27.28-13.817,42.776-42.344,70.563-80.4,93.937-13.426,8.194-136.632,80.24-93.038,94.368,15.725,5.116,48.312-9.366,63.846-15.414,31.928-12.526,63.186-30.561,93.119-46.988,59.906-32.784,114.467-71.463,178.862-96.6,44.221-17.092,9.487,23.537-4.919,37.742-12.173,12.1-53.5,38.951-47.1,59.051,23.608,3.394,59.786-15.654,80.627-25.565,19.4-9.132,39.3-17.8,58.462-27.28A278.488,278.488,0,0,1,1557.062,638.371Z" transform="translate(-1036.544 -532.815)" fill="#5dc8d5" style="mix-blend-mode: multiply;isolation: isolate"/>
          </g>
        </g>
        <g id="Group_650" data-name="Group 650" transform="translate(17.493 244.636)" style="mix-blend-mode: multiply;isolation: isolate">
          <g id="Group_649" data-name="Group 649">
            <path id="Path_4159" data-name="Path 4159" d="M1592.148,659.394a285.168,285.168,0,0,1-11.626,49.489c-49.958,21.93-102.448,39.845-151.272,61.078-16.313,7.181-34.931,15.49-52.845,19.081-43.708,8.663,1.444-19.98,1.444-30.947-19.2.43-40.471,14.634-57.563,22.91-22.595,11.044-44.884,22.164-67.751,32.315-34.113,15.142-66.619,31.961-101.587,42.814-6.832-4.451-13.463-9.251-19.9-14.324-3.748.153-10.227-8.276-12.721-10.576-5.231-4.805-10.265-9.8-15.186-14.912a314.442,314.442,0,0,1-27.046-32.664,284.292,284.292,0,0,1-36.335-68.3c1.487-.626,2.969-1.291,4.375-1.875,44.842-18.775,90.543-36.063,133.978-57.759,35.867-17.952,72.28-34.968,108.42-52.572,18.029-8.86,57.018-34.108,77.624-27.281-13.817,42.776-42.345,70.563-80.4,93.943-13.425,8.195-136.631,80.24-93.037,94.368,15.729,5.111,48.317-9.372,63.844-15.419,31.928-12.526,63.186-30.555,93.121-46.988,59.906-32.783,114.468-71.457,178.863-96.59,44.22-17.1,9.486,23.532-4.914,37.736-12.178,12.1-53.51,38.951-47.108,59.05,23.609,3.395,59.792-15.653,80.632-25.564C1567.407,670.635,1579.818,665.055,1592.148,659.394Z" transform="translate(-1039.754 -574.718)" fill="#5dc8d5"/>
          </g>
        </g>
        <g id="Group_652" data-name="Group 652" transform="translate(226.137 427.974)" style="mix-blend-mode: multiply;isolation: isolate">
          <g id="Group_651" data-name="Group 651">
            <path id="Path_4160" data-name="Path 4160" d="M1388.394,608.367c-3.28,5.851-6.8,11.589-10.5,17.212a287.522,287.522,0,0,1-273.737,126.563c-8.783-1.09-17.522-2.571-26.109-4.446.583-.273,1.171-.55,1.754-.785,44.841-18.732,90.581-36.058,134.021-57.76,35.862-17.953,72.274-34.93,108.375-52.529C1337.265,629.208,1367,610.356,1388.394,608.367Z" transform="translate(-1078.048 -608.367)" fill="#081f3d"/>
          </g>
        </g>
        <path id="Path_4161" data-name="Path 4161" d="M1485.627,842.559a284.585,284.585,0,0,1-11.633,49.489,277.985,277.985,0,0,1-21.777,49.173c-3.276,5.851-6.79,11.589-10.494,17.211a287.522,287.522,0,0,1-273.737,126.563c-8.783-1.09-17.528-2.571-26.108-4.446A288.04,288.04,0,0,1,1063.7,1051c293.406-122.5,280.14-374.267,244.234-517.458a287.308,287.308,0,0,1,81.139,48.862,271.727,271.727,0,0,1,22.4,21.582,278.966,278.966,0,0,1,24.784,31.143,301.759,301.759,0,0,1,41.72,90.815,290.555,290.555,0,0,1,8.509,43.948A286.6,286.6,0,0,1,1485.627,842.559Z" transform="translate(-915.729 -513.246)" fill="#e1e0e0" style="mix-blend-mode: multiply;isolation: isolate"/>
      </g>
    </g>
  </g>
</svg>
