<svg xmlns="http://www.w3.org/2000/svg" width="23.843" height="31.4" viewBox="0 0 23.843 31.4">
  <g id="Group_752" data-name="Group 752" transform="translate(-13.5 -1.8)">
    <path id="Path_3734" data-name="Path 3734" d="M27.515,28.586A2.933,2.933,0,0,0,29.534,28a2.276,2.276,0,0,0,.651-1.824,2.421,2.421,0,0,0-.651-1.857,2.967,2.967,0,0,0-2.052-.619H25.3v6.775h1.368V28.586ZM26.668,25h.782a1.7,1.7,0,0,1,1.01.261.977.977,0,0,1,.326.847,1.348,1.348,0,0,1-.261.879,1.212,1.212,0,0,1-.945.293h-.912Z" transform="translate(-7.956 -14.767)"/>
    <path id="Path_3735" data-name="Path 3735" d="M46.956,29.463a3.447,3.447,0,0,0,.847-2.508,3.381,3.381,0,0,0-.879-2.476,3.44,3.44,0,0,0-2.541-.879H42.2v6.775h2.117A3.345,3.345,0,0,0,46.956,29.463Zm-1.042-.912a1.847,1.847,0,0,1-1.433.521H43.6V24.935h.782a2.124,2.124,0,0,1,1.563.554,2.227,2.227,0,0,1,.521,1.531A2.409,2.409,0,0,1,45.913,28.551Z" transform="translate(-19.352 -14.699)"/>
    <path id="Path_3736" data-name="Path 3736" d="M65.934,25.035V23.7H61.7v6.775h1.368V27.8h2.7V26.5h-2.7V25.035Z" transform="translate(-32.5 -14.767)"/>
    <path id="Path_3737" data-name="Path 3737" d="M35.226,1.8H15.552A2.044,2.044,0,0,0,13.5,3.852V27.891a2.044,2.044,0,0,0,2.052,2.052H20.08l-.619-.619-.619-.619H15.585a.806.806,0,0,1-.814-.814V3.852a.806.806,0,0,1,.814-.814H35.291a.806.806,0,0,1,.814.814V27.891a.806.806,0,0,1-.814.814h-2.8l-.619.619-.619.619h4.039a2.044,2.044,0,0,0,2.052-2.052V3.852A2.121,2.121,0,0,0,35.226,1.8Z"/>
    <path id="Path_3738" data-name="Path 3738" d="M42.3,61.768l-4.267-.033V54.7H32.167v6.938L27.9,61.573l7.3,7.3Z" transform="translate(-9.709 -35.669)"/>
  </g>
</svg>
