<svg xmlns="http://www.w3.org/2000/svg" xmlns:xlink="http://www.w3.org/1999/xlink" width="43.989" height="44.077" viewBox="0 0 43.989 44.077">
  <defs>
    <linearGradient id="linear-gradient" x1="0.893" y1="0.786" x2="0.152" y2="0.247" gradientUnits="objectBoundingBox">
      <stop offset="0" stop-color="#45b2db"/>
      <stop offset="0.981" stop-color="#0057a2"/>
    </linearGradient>
  </defs>
  <g id="Group_680" data-name="Group 680" transform="translate(-513 -1031)">
    <path id="Path_4178" data-name="Path 4178" d="M1163.738,309.7a21.9,21.9,0,0,1-.893,3.8,21.4,21.4,0,0,1-1.673,3.777q-.378.675-.807,1.322a22.086,22.086,0,0,1-21.027,9.722c-.675-.084-1.346-.2-2.006-.342a22.139,22.139,0,0,1-6-2.269q-.755-.418-1.481-.9c-.525-.342-1.034-.711-1.529-1.1-.288.012-.786-.636-.977-.812-.4-.369-.789-.753-1.166-1.146a24.1,24.1,0,0,1-2.078-2.509,21.841,21.841,0,0,1-2.791-5.246c-.054-.15-.108-.3-.159-.453a1.423,1.423,0,0,1-.075-.2l-.027-.081a21.737,21.737,0,0,1-1.034-5.372c-.018-.267-.03-.531-.036-.8a21.07,21.07,0,0,1,.441-5.088,22.033,22.033,0,0,1,35.906-12.291,20.911,20.911,0,0,1,1.721,1.658,21.407,21.407,0,0,1,1.9,2.392,23.173,23.173,0,0,1,3.2,6.976,22.261,22.261,0,0,1,.654,3.376A22.023,22.023,0,0,1,1163.738,309.7Z" transform="translate(-606.961 746.591)" fill="url(#linear-gradient)"/>
    <g id="Group_673" data-name="Group 673" transform="translate(513 1032.254)">
      <g id="Group_672" data-name="Group 672">
        <path id="Path_4179" data-name="Path 4179" d="M1159.944,295.514c-5.039,2.833-10.828,4.611-16.066,6.889a20.665,20.665,0,0,1-4.059,1.466c-3.358.665.111-1.535.111-2.377-1.475.033-3.109,1.124-4.422,1.76-1.736.848-3.447,1.7-5.2,2.482-3.411,1.514-6.613,3.247-10.295,3.906-.018-.267-.03-.531-.036-.8a21.07,21.07,0,0,1,.441-5.088,22.042,22.042,0,0,1,5.765-10.912c2.236-1.1,4.494-2.162,6.736-3.253,1.385-.681,4.38-2.62,5.963-2.1-1.061,3.286-3.253,5.42-6.176,7.216-1.031.63-10.5,6.164-7.147,7.249,1.208.393,3.712-.72,4.9-1.184a63.651,63.651,0,0,0,7.153-3.609c4.6-2.518,8.793-5.489,13.739-7.42,3.4-1.313.729,1.808-.378,2.9-.935.93-4.11,2.992-3.619,4.536,1.814.261,4.593-1.2,6.194-1.964,1.49-.7,3.019-1.367,4.491-2.1A21.435,21.435,0,0,1,1159.944,295.514Z" transform="translate(-1119.96 -287.406)" fill="#5dc8d5" style="mix-blend-mode: multiply;isolation: isolate"/>
      </g>
    </g>
    <g id="Group_675" data-name="Group 675" transform="translate(514.344 1049.792)" style="mix-blend-mode: multiply;isolation: isolate">
      <g id="Group_674" data-name="Group 674">
        <path id="Path_4180" data-name="Path 4180" d="M1165.6,335.814a21.914,21.914,0,0,1-.893,3.8c-3.838,1.685-7.87,3.061-11.62,4.692a20.671,20.671,0,0,1-4.059,1.466c-3.357.665.111-1.535.111-2.378-1.475.033-3.109,1.125-4.422,1.76-1.736.848-3.447,1.7-5.2,2.482a72.65,72.65,0,0,1-7.8,3.289c-.524-.342-1.034-.711-1.529-1.1-.288.012-.786-.636-.977-.812-.4-.369-.788-.753-1.166-1.146a24.04,24.04,0,0,1-2.077-2.509,21.828,21.828,0,0,1-2.791-5.246c.114-.048.228-.1.336-.144,3.445-1.442,6.955-2.77,10.292-4.437,2.755-1.379,5.552-2.686,8.328-4.038,1.385-.681,4.38-2.62,5.963-2.1-1.061,3.285-3.253,5.42-6.175,7.216-1.031.629-10.5,6.164-7.147,7.249,1.208.393,3.711-.719,4.9-1.184a63.608,63.608,0,0,0,7.153-3.609c4.6-2.518,8.793-5.489,13.739-7.42,3.4-1.313.729,1.808-.377,2.9-.935.929-4.11,2.992-3.619,4.536,1.814.261,4.593-1.2,6.194-1.964C1163.7,336.677,1164.656,336.248,1165.6,335.814Z" transform="translate(-1123.172 -329.309)" fill="#5dc8d5"/>
      </g>
    </g>
    <g id="Group_677" data-name="Group 677" transform="translate(530.371 1063.875)" style="mix-blend-mode: multiply;isolation: isolate">
      <g id="Group_676" data-name="Group 676">
        <path id="Path_4181" data-name="Path 4181" d="M1185.3,362.958q-.378.675-.807,1.322A22.086,22.086,0,0,1,1163.471,374c-.675-.084-1.346-.2-2.006-.342.045-.021.09-.042.135-.06,3.445-1.439,6.958-2.77,10.295-4.437,2.755-1.379,5.552-2.683,8.325-4.035C1181.377,364.559,1183.661,363.111,1185.3,362.958Z" transform="translate(-1161.465 -362.958)" fill="#081f3d"/>
      </g>
    </g>
    <path id="Path_4182" data-name="Path 4182" d="M1179.529,311.871a21.9,21.9,0,0,1-.893,3.8,21.415,21.415,0,0,1-1.673,3.777q-.378.675-.807,1.322a22.085,22.085,0,0,1-21.027,9.722c-.675-.084-1.346-.2-2.005-.342a22.138,22.138,0,0,1-6.005-2.269c22.538-9.411,21.519-28.75,18.761-39.749a22.081,22.081,0,0,1,6.233,3.753,20.937,20.937,0,0,1,1.721,1.658,21.422,21.422,0,0,1,1.9,2.392,23.173,23.173,0,0,1,3.2,6.976,22.276,22.276,0,0,1,.654,3.376A22.023,22.023,0,0,1,1179.529,311.871Z" transform="translate(-622.752 744.425)" fill="#e1e0e0" style="mix-blend-mode: multiply;isolation: isolate"/>
  </g>
</svg>
