<svg id="Group_756" data-name="Group 756" xmlns="http://www.w3.org/2000/svg" xmlns:xlink="http://www.w3.org/1999/xlink" width="5.794" height="5.795" viewBox="0 0 5.794 5.795">
  <defs>
    <linearGradient id="linear-gradient" x1="0.741" y1="0.5" x2="0.259" y2="0.5" gradientUnits="objectBoundingBox">
      <stop offset="0.002" stop-color="#d0dff7"/>
      <stop offset="0.091" stop-color="#d6e3f8"/>
      <stop offset="0.537" stop-color="#f3f7fd"/>
      <stop offset="0.791" stop-color="#fff"/>
    </linearGradient>
  </defs>
  <path id="Path_4237" data-name="Path 4237" d="M1058.129,415.3c.385.388.77.773,1.158,1.161a1.782,1.782,0,0,0,.744.479,2.118,2.118,0,0,0,1.786,0,1.771,1.771,0,0,0,.748-.479l.362-.469a2.326,2.326,0,0,0,.317-1.171l-.084-.615a2.281,2.281,0,0,0-.595-1.022c-.388-.388-.773-.773-1.158-1.161a1.768,1.768,0,0,0-.747-.479,2.119,2.119,0,0,0-1.786,0,1.759,1.759,0,0,0-.744.479l-.362.469a2.3,2.3,0,0,0-.317,1.171l.081.615a2.3,2.3,0,0,0,.6,1.022Z" transform="translate(-1057.449 -411.342)" fill="url(#linear-gradient)"/>
</svg>
