<svg xmlns="http://www.w3.org/2000/svg" xmlns:xlink="http://www.w3.org/1999/xlink" width="139.965" height="324.456" viewBox="0 0 139.965 324.456">
  <defs>
    <linearGradient id="linear-gradient" y1="0.5" x2="1" y2="0.5" gradientUnits="objectBoundingBox">
      <stop offset="0" stop-color="#45b2db"/>
      <stop offset="0.981" stop-color="#0057a2"/>
    </linearGradient>
    <linearGradient id="linear-gradient-2" x1="0.286" y1="0.358" x2="1.211" y2="0.981" gradientUnits="objectBoundingBox">
      <stop offset="0.01" stop-color="#848383"/>
      <stop offset="0.152" stop-color="#8b8a8a"/>
      <stop offset="0.369" stop-color="#a1a0a0"/>
      <stop offset="0.635" stop-color="#c4c3c3"/>
      <stop offset="0.938" stop-color="#f4f4f4"/>
      <stop offset="1" stop-color="#fff"/>
    </linearGradient>
    <linearGradient id="linear-gradient-3" x1="1" y1="0.5" x2="0" y2="0.5" gradientUnits="objectBoundingBox">
      <stop offset="0.002" stop-color="#d0dff7"/>
      <stop offset="0.091" stop-color="#d6e3f8"/>
      <stop offset="0.537" stop-color="#f3f7fd"/>
      <stop offset="0.791" stop-color="#fff"/>
    </linearGradient>
    <linearGradient id="linear-gradient-4" x1="0.75" y1="0.5" x2="0.25" y2="0.5" xlink:href="#linear-gradient-3"/>
    <linearGradient id="linear-gradient-5" x1="0.75" y1="0.5" x2="0.25" y2="0.5" xlink:href="#linear-gradient-3"/>
    <linearGradient id="linear-gradient-6" x1="1" y1="0.5" x2="0" y2="0.5" xlink:href="#linear-gradient-3"/>
    <linearGradient id="linear-gradient-7" x1="1" y1="0.5" x2="0" y2="0.5" xlink:href="#linear-gradient-3"/>
    <linearGradient id="linear-gradient-8" x1="0.571" y1="0.5" x2="0.428" y2="0.5" xlink:href="#linear-gradient-3"/>
    <linearGradient id="linear-gradient-9" x1="0.625" y1="0.5" x2="0.375" y2="0.5" xlink:href="#linear-gradient-3"/>
    <linearGradient id="linear-gradient-11" x1="1" y1="0.5" x2="0" y2="0.5" xlink:href="#linear-gradient-3"/>
    <linearGradient id="linear-gradient-12" x1="0.715" y1="0.5" x2="0.413" y2="0.5" xlink:href="#linear-gradient-3"/>
    <linearGradient id="linear-gradient-13" x1="0.571" y1="0.5" x2="0.429" y2="0.5" xlink:href="#linear-gradient-3"/>
  </defs>
  <g id="Group_823" data-name="Group 823" transform="translate(-1920.035 -2965.366)">
    <path id="Path_4282" data-name="Path 4282" d="M1091.831,472.087a9.638,9.638,0,1,1-13.281,3.057A9.628,9.628,0,0,1,1091.831,472.087Z" transform="translate(870.302 2649.448)" fill="url(#linear-gradient)"/>
    <path id="Path_4283" data-name="Path 4283" d="M1088.7,471.071l33.211,26.87-4.138,6.61-39.3-17.138a9.638,9.638,0,0,0,10.224-16.342Z" transform="translate(873.43 2650.463)" fill="url(#linear-gradient-2)" style="mix-blend-mode: multiply;isolation: isolate"/>
    <g id="Group_739" data-name="Group 739" transform="translate(1923.438 3167.765)">
      <path id="Path_4220" data-name="Path 4220" d="M1071.918,489.993c2.983,0,2.986-4.633,0-4.633s-2.986,4.633,0,4.633Z" transform="translate(-1069.679 -485.36)" fill="url(#linear-gradient-3)"/>
    </g>
    <g id="Group_741" data-name="Group 741" transform="translate(2034.504 3194.802)">
      <path id="Path_4222" data-name="Path 4222" d="M1104.009,496.035v1.158a2.591,2.591,0,0,0,.68,1.641,1.778,1.778,0,0,0,.744.479,1.739,1.739,0,0,0,.893.2l.618-.081a2.355,2.355,0,0,0,1.022-.6l.362-.469a2.335,2.335,0,0,0,.317-1.171v-1.158a1.765,1.765,0,0,0-.2-.893,1.742,1.742,0,0,0-.479-.747,2.571,2.571,0,0,0-1.64-.676l-.614.081a2.331,2.331,0,0,0-1.022.6l-.363.469a2.3,2.3,0,0,0-.317,1.171Z" transform="translate(-1104.008 -493.717)" fill="url(#linear-gradient-4)"/>
    </g>
    <g id="Group_744" data-name="Group 744" transform="translate(1951.073 3284.024)">
      <path id="Path_4225" data-name="Path 4225" d="M1082.858,524.773v-1.161a2.384,2.384,0,0,0-2.317-2.317l-.618.084a2.324,2.324,0,0,0-1.022.6l-.363.469a2.329,2.329,0,0,0-.317,1.168v1.161a1.765,1.765,0,0,0,.2.89,2.389,2.389,0,0,0,2.119,1.427l.615-.084a2.3,2.3,0,0,0,1.022-.6l.363-.469a2.291,2.291,0,0,0,.317-1.168Z" transform="translate(-1078.22 -521.294)" fill="url(#linear-gradient-5)"/>
    </g>
    <g id="Group_754" data-name="Group 754" transform="translate(2036.903 2967.687)">
      <path id="Path_4235" data-name="Path 4235" d="M1106.989,428.153c2.98,0,2.986-4.633,0-4.633s-2.99,4.633,0,4.633Z" transform="translate(-1104.749 -423.52)" fill="url(#linear-gradient-6)"/>
    </g>
    <g id="Group_761" data-name="Group 761" transform="translate(2046.211 3147.294)">
      <path id="Path_4242" data-name="Path 4242" d="M1110.984,485.983c4.475,0,4.481-6.95,0-6.95s-4.48,6.95,0,6.95Z" transform="translate(-1107.626 -479.033)" fill="url(#linear-gradient-7)"/>
    </g>
    <g id="Group_771" data-name="Group 771" transform="translate(1960.345 2965.366)">
      <path id="Path_4252" data-name="Path 4252" d="M1085.722,422.8h-1.158a2.645,2.645,0,0,0-1.339.3,3.563,3.563,0,0,0-2.135,3.177l.123.922a3.479,3.479,0,0,0,.893,1.537l.706.544a3.434,3.434,0,0,0,1.753.472h1.158a2.609,2.609,0,0,0,1.339-.3,2.651,2.651,0,0,0,1.12-.718,2.61,2.61,0,0,0,.718-1.119,2.649,2.649,0,0,0,.3-1.34l-.126-.925a3.477,3.477,0,0,0-.893-1.534l-.706-.544a3.469,3.469,0,0,0-1.754-.476Z" transform="translate(-1081.086 -422.803)" fill="url(#linear-gradient-8)"/>
    </g>
    <g id="Group_772" data-name="Group 772" transform="translate(2011.329 3248.102)">
      <path id="Path_4253" data-name="Path 4253" d="M1100.324,517.145h2.317a2.613,2.613,0,0,0,1.34-.3,3.119,3.119,0,0,0,1.838-1.838,2.61,2.61,0,0,0,.3-1.339l-.123-.925a3.469,3.469,0,0,0-.893-1.534l-.705-.544a3.473,3.473,0,0,0-1.754-.476h-2.317a2.651,2.651,0,0,0-1.34.3,3.12,3.12,0,0,0-1.838,1.838,2.619,2.619,0,0,0-.3,1.34l.123.925a3.508,3.508,0,0,0,.9,1.534l.7.543a3.455,3.455,0,0,0,1.757.472Z" transform="translate(-1096.844 -510.19)" fill="url(#linear-gradient-9)"/>
    </g>
    <g id="Group_774" data-name="Group 774" transform="translate(1975.615 3099.317)">
      <path id="Path_4255" data-name="Path 4255" d="M1088.045,468.84c2.983,0,2.99-4.636,0-4.636s-2.986,4.636,0,4.636Z" transform="translate(-1085.806 -464.204)" fill="url(#linear-gradient-7)"/>
    </g>
    <g id="Group_776" data-name="Group 776" transform="translate(1920.035 3066.872)">
      <path id="Path_4257" data-name="Path 4257" d="M1071.985,461.129c4.474,0,4.481-6.953,0-6.953s-4.481,6.953,0,6.953Z" transform="translate(-1068.627 -454.176)" fill="url(#linear-gradient-11)"/>
    </g>
    <g id="Group_782" data-name="Group 782" transform="translate(1966.713 3169.691)">
      <path id="Path_4263" data-name="Path 4263" d="M1086.534,494.069a2.094,2.094,0,0,0,.246.013l.11,0,.055-.007c.32-.032.647-.081.965-.126a.942.942,0,0,0,.187-.045,4.918,4.918,0,0,0,.986-.421l.068-.042c.181-.129.534-.408.712-.55l.016-.013.036-.029.052-.058a8.438,8.438,0,0,0,.592-.764l.039-.071.02-.039.01-.019c.11-.256.259-.589.356-.848a1.169,1.169,0,0,0,.052-.181,7.585,7.585,0,0,0,.146-1.149,2.029,2.029,0,0,0-.013-.281,3.841,3.841,0,0,0-1.019-2.459,2.573,2.573,0,0,0-1.116-.718,2.613,2.613,0,0,0-1.339-.3l-.926.123a3.509,3.509,0,0,0-1.533.9l-.544.7a3.492,3.492,0,0,0-.476,1.757,1.9,1.9,0,0,1,0,.45l.123-.926a1.007,1.007,0,0,1-.064.256l.349-.831a.772.772,0,0,1-.094.168l.543-.705a.775.775,0,0,1-.126.126l.706-.544a.8.8,0,0,1-.169.094l.832-.349a1,1,0,0,1-.255.065l.925-.123a1.89,1.89,0,0,1-.45,0,2.65,2.65,0,0,0-1.339.3,3.119,3.119,0,0,0-1.838,1.838,2.614,2.614,0,0,0-.3,1.339l.126.922a3.475,3.475,0,0,0,.893,1.533l.7.544a3.429,3.429,0,0,0,1.757.476Z" transform="translate(-1083.054 -485.956)" fill="url(#linear-gradient-12)"/>
    </g>
    <g id="Group_791" data-name="Group 791" transform="translate(2051.885 3053.433)">
      <path id="Path_4272" data-name="Path 4272" d="M1114.017,450.025h-1.158a3.347,3.347,0,0,0-3.177,2.135,2.648,2.648,0,0,0-.3,1.339l.126.925a3.475,3.475,0,0,0,.893,1.534l.7.544a3.49,3.49,0,0,0,1.757.476h1.158a2.65,2.65,0,0,0,1.34-.3,2.611,2.611,0,0,0,1.119-.718,2.671,2.671,0,0,0,.718-1.12,2.612,2.612,0,0,0,.3-1.339l-.123-.925a3.474,3.474,0,0,0-.893-1.534l-.705-.544a3.435,3.435,0,0,0-1.753-.472Z" transform="translate(-1109.379 -450.022)" fill="url(#linear-gradient-13)"/>
    </g>
  </g>
</svg>
