<svg xmlns="http://www.w3.org/2000/svg" xmlns:xlink="http://www.w3.org/1999/xlink" width="65.504" height="65.636" viewBox="0 0 65.504 65.636">
  <defs>
    <linearGradient id="linear-gradient" x1="0.892" y1="0.786" x2="0.152" y2="0.247" gradientUnits="objectBoundingBox">
      <stop offset="0" stop-color="#45b2db"/>
      <stop offset="0.981" stop-color="#0057a2"/>
    </linearGradient>
  </defs>
  <g id="Group_821" data-name="Group 821" transform="translate(-355.453 -3656.845)">
    <path id="Path_4214" data-name="Path 4214" d="M1123.435,461.548a32.533,32.533,0,0,1-1.33,5.659,31.866,31.866,0,0,1-2.492,5.626q-.563,1-1.2,1.967a32.875,32.875,0,0,1-31.312,14.479c-1.006-.126-2.006-.294-2.986-.508a32.99,32.99,0,0,1-8.943-3.381q-1.126-.622-2.207-1.34c-.78-.508-1.54-1.058-2.275-1.637-.43.016-1.171-.948-1.456-1.21-.6-.55-1.175-1.119-1.737-1.705a35.5,35.5,0,0,1-3.093-3.737,32.487,32.487,0,0,1-4.157-7.813c-.081-.223-.159-.45-.236-.673a1.909,1.909,0,0,1-.11-.3l-.042-.123a32.391,32.391,0,0,1-1.54-8c-.026-.4-.045-.793-.052-1.188a31.352,31.352,0,0,1,.654-7.577,32.805,32.805,0,0,1,53.468-18.3,30.92,30.92,0,0,1,2.562,2.469,31.909,31.909,0,0,1,2.838,3.562,34.581,34.581,0,0,1,4.772,10.389,33.38,33.38,0,0,1,.971,5.025A32.654,32.654,0,0,1,1123.435,461.548Z" transform="translate(-702.795 3232.968)" fill="url(#linear-gradient)"/>
    <g id="Group_733" data-name="Group 733" transform="translate(372.378 3659.166)" style="mix-blend-mode: multiply;isolation: isolate">
      <path id="Path_4215" data-name="Path 4215" d="M1111.742,459.945a32.542,32.542,0,0,1-1.33,5.659,31.855,31.855,0,0,1-2.491,5.626q-.563,1-1.2,1.967a32.876,32.876,0,0,1-31.312,14.478c-1.006-.126-2.006-.294-2.986-.508a32.985,32.985,0,0,1-8.943-3.381c33.561-14.013,32.043-42.811,27.938-59.192a32.9,32.9,0,0,1,9.279,5.591,30.92,30.92,0,0,1,2.562,2.469,31.906,31.906,0,0,1,2.838,3.562,34.575,34.575,0,0,1,4.772,10.389,33.352,33.352,0,0,1,.971,5.025A32.647,32.647,0,0,1,1111.742,459.945Z" transform="translate(-1063.479 -424.595)" fill="#e1e0e0"/>
    </g>
  </g>
</svg>
