<svg id="Group_732" data-name="Group 732" xmlns="http://www.w3.org/2000/svg" xmlns:xlink="http://www.w3.org/1999/xlink" width="126.036" height="79.93" viewBox="0 0 126.036 79.93">
  <defs>
    <linearGradient id="linear-gradient" x1="-10.768" y1="7.963" x2="-9.741" y2="7.963" gradientUnits="objectBoundingBox">
      <stop offset="0" stop-color="#3ea1d2"/>
      <stop offset="0.661" stop-color="#c0e0f0"/>
      <stop offset="1" stop-color="#fff"/>
    </linearGradient>
    <linearGradient id="linear-gradient-2" x1="-12.873" y1="11.541" x2="-11.759" y2="11.541" xlink:href="#linear-gradient"/>
    <linearGradient id="linear-gradient-3" x1="-11.063" y1="16.117" x2="-10.033" y2="16.117" xlink:href="#linear-gradient"/>
    <linearGradient id="linear-gradient-4" x1="-18.993" y1="13.39" x2="-17.778" y2="13.39" xlink:href="#linear-gradient"/>
    <linearGradient id="linear-gradient-5" x1="-5.98" y1="7.466" x2="-6.36" y2="7.077" gradientUnits="objectBoundingBox">
      <stop offset="0" stop-color="#45b2db"/>
      <stop offset="0.981" stop-color="#0057a2"/>
    </linearGradient>
  </defs>
  <g id="Group_731" data-name="Group 731" transform="translate(20.666)">
    <path id="Path_4209" data-name="Path 4209" d="M1001.238,484.321A267.2,267.2,0,0,1,967.907,505.4a266.253,266.253,0,0,1-35.832,16.556,39.832,39.832,0,0,1-6.435-11.868,2.867,2.867,0,0,1-.132-.362l-.049-.152a39.266,39.266,0,0,1-1.941-11.188,38.408,38.408,0,0,1,.8-9.227,39.933,39.933,0,0,1,70.1-17.17,4.786,4.786,0,0,1,.375.453,40.05,40.05,0,0,1,2.724,3.911q.816,1.32,1.508,2.724A39.042,39.042,0,0,1,1001.238,484.321Z" transform="translate(-923.494 -457.243)" fill="url(#linear-gradient)"/>
    <path id="Path_4210" data-name="Path 4210" d="M993.253,468.1a38.768,38.768,0,0,1,.272,6.435,39.919,39.919,0,0,1-65.637,28.957,345.443,345.443,0,0,0,34.334-16.429A341.689,341.689,0,0,0,993.253,468.1Z" transform="translate(-913.67 -432.972)" fill="url(#linear-gradient-2)"/>
    <g id="Group_729" data-name="Group 729" transform="translate(0 16.331)" style="mix-blend-mode: multiply;isolation: isolate">
      <path id="Path_4211" data-name="Path 4211" d="M999.019,467.8c-.065.039-.129.075-.178.1-2.139,1.226-4.348,2.323-6.432,3.711-7.6,5.06-16.941,7.771-25.272,11.392a28.429,28.429,0,0,1-5.6,2.025c-4.636.922.152-2.119.152-3.281-2.038.045-4.3,1.55-6.108,2.427-2.394,1.174-4.759,2.352-7.186,3.43-4.721,2.1-9.147,4.491-14.242,5.4-1.753.317-5.306.809-5.859-1.485-.5-2.1,4.624-4.9,1.482-5.921-1.411-.443-3.841.906-5.206,1.262-.343.1-.7.181-1.048.249a38.408,38.408,0,0,1,.8-9.227c.715-.307,1.372-.611,1.967-.867,4.756-1.987,9.609-3.824,14.216-6.128,3.8-1.9,7.668-3.708,11.5-5.575,1.912-.938,6.053-3.617,8.234-2.9-1.462,4.539-4.487,7.487-8.525,9.968-1.424.87-14.5,8.512-9.871,10.01,1.67.54,5.125-.993,6.772-1.634a87.986,87.986,0,0,0,9.881-4.989c6.354-3.475,12.143-7.581,18.972-10.243,4.691-1.815,1.009,2.495-.521,4.006-1.288,1.278-5.675,4.128-5,6.26,2.5.362,6.345-1.66,8.554-2.711,2.7-1.271,5.481-2.449,8.06-3.85a48.5,48.5,0,0,1,8.955-4.158Q998.327,466.392,999.019,467.8Z" transform="translate(-923.494 -462.29)" fill="url(#linear-gradient-3)"/>
    </g>
    <g id="Group_730" data-name="Group 730" transform="translate(35.141 41.563)" style="mix-blend-mode: multiply;isolation: isolate">
      <path id="Path_4212" data-name="Path 4212" d="M979.069,470.089a39.977,39.977,0,0,1-44.714,38.078c4.232-1.831,8.658-3.258,12.631-5.474,1.55-.854,3.928-2.035,1.64-3.116-1.912-.919-4.335.175-6.205.692-1.744.479-3.834.828-2.521-1.805,1.032-2.071,4.7-3.313,6.555-4.161,4.154-1.9,8.412-3.556,12.543-5.474,1.6-.747,7.024-2.669,6.756-5.025-.21-1.669-2.676-1.3-3.119-2.579-.812-2.3,4.636-4.3,6.093-5.064,2.656-1.394,5.312-2.789,7.881-4.352C977.441,471.3,978.234,470.678,979.069,470.089Z" transform="translate(-934.355 -470.089)" fill="url(#linear-gradient-4)"/>
    </g>
  </g>
  <path id="Path_4213" data-name="Path 4213" d="M1017.355,487.729a341.726,341.726,0,0,1-31.031,18.963,345.41,345.41,0,0,1-34.334,16.429c-18.714,7.577-32.364,10.4-34.573,6.345-2.132-3.909,6.885-13.294,22.37-24.379a2.827,2.827,0,0,0,.132.362c-8.775,6.71-13.608,12.074-12.333,14.407s8.39,1.191,18.769-2.54a266.239,266.239,0,0,0,35.832-16.556,267.224,267.224,0,0,0,33.331-21.082c8.774-6.71,13.608-12.075,12.333-14.407s-8.389-1.191-18.785,2.53a4.757,4.757,0,0,0-.375-.453c18.494-7.461,31.956-10.2,34.143-6.176C1045.1,465.343,1034.729,475.726,1017.355,487.729Z" transform="translate(-917.106 -452.601)" fill="url(#linear-gradient-5)"/>
</svg>
