<svg id="Group_752" data-name="Group 752" xmlns="http://www.w3.org/2000/svg" xmlns:xlink="http://www.w3.org/1999/xlink" width="5.794" height="6.954" viewBox="0 0 5.794 6.954">
  <defs>
    <linearGradient id="linear-gradient" x1="0.779" y1="0.5" x2="0.221" y2="0.5" gradientUnits="objectBoundingBox">
      <stop offset="0.002" stop-color="#d0dff7"/>
      <stop offset="0.091" stop-color="#d6e3f8"/>
      <stop offset="0.537" stop-color="#f3f7fd"/>
      <stop offset="0.791" stop-color="#fff"/>
    </linearGradient>
  </defs>
  <path id="Path_4233" data-name="Path 4233" d="M893.376,464.255l1.159,2.317a1.718,1.718,0,0,0,.6.65,2.094,2.094,0,0,0,1.715.456,1.724,1.724,0,0,0,.861-.275l.469-.362a2.3,2.3,0,0,0,.6-1.022l.084-.615a2.322,2.322,0,0,0-.317-1.171l-1.158-2.317a2.606,2.606,0,0,0-1.385-1.065,1.767,1.767,0,0,0-.925-.042,1.723,1.723,0,0,0-.861.275l-.469.362a2.3,2.3,0,0,0-.6,1.022l-.084.615a2.289,2.289,0,0,0,.317,1.171Z" transform="translate(-893.059 -460.767)" fill="url(#linear-gradient)"/>
</svg>
