<svg id="Group_798" data-name="Group 798" xmlns="http://www.w3.org/2000/svg" xmlns:xlink="http://www.w3.org/1999/xlink" width="9.272" height="8.276" viewBox="0 0 9.272 8.276">
  <defs>
    <linearGradient id="linear-gradient" x1="0.748" y1="0.5" x2="0.337" y2="0.5" gradientUnits="objectBoundingBox">
      <stop offset="0.002" stop-color="#d0dff7"/>
      <stop offset="0.091" stop-color="#d6e3f8"/>
      <stop offset="0.537" stop-color="#f3f7fd"/>
      <stop offset="0.791" stop-color="#fff"/>
    </linearGradient>
  </defs>
  <path id="Path_4279" data-name="Path 4279" d="M972.252,471.978a4.1,4.1,0,0,0,.511.126,9.081,9.081,0,0,0,1.327.162,6.576,6.576,0,0,0,1.281-.155,4.868,4.868,0,0,0,1.139-.45,4.688,4.688,0,0,0,.964-.715,1.237,1.237,0,0,0,.13-.13c.194-.236.388-.5.569-.741l.055-.078a1.289,1.289,0,0,0,.1-.171c.152-.32.291-.647.411-.977a2.22,2.22,0,0,0,.11-.459,2.615,2.615,0,0,0,.065-1.385,2.578,2.578,0,0,0-.414-1.291,3.886,3.886,0,0,0-2.077-1.6l-.926-.126a3.482,3.482,0,0,0-1.753.476l-.7.544a3.448,3.448,0,0,0-.9,1.534,2.163,2.163,0,0,1-.139.534l.349-.831a1.47,1.47,0,0,1-.181.32l.543-.7a1.273,1.273,0,0,1-.207.21l.7-.544a1.281,1.281,0,0,1-.249.146l.828-.349a1.426,1.426,0,0,1-.366.1l.925-.123a2.259,2.259,0,0,1-.573-.013l.925.126a3.764,3.764,0,0,1-.6-.139,2.632,2.632,0,0,0-1.388-.061,2.578,2.578,0,0,0-1.291.411,2.66,2.66,0,0,0-.977.9,2.62,2.62,0,0,0-.621,1.181l-.123.925a3.433,3.433,0,0,0,.472,1.754l.544.705a3.47,3.47,0,0,0,1.533.893Z" transform="translate(-969.703 -463.99)" fill="url(#linear-gradient)"/>
</svg>
