<svg id="Group_779" data-name="Group 779" xmlns="http://www.w3.org/2000/svg" xmlns:xlink="http://www.w3.org/1999/xlink" width="8.127" height="8.126" viewBox="0 0 8.127 8.126">
  <defs>
    <linearGradient id="linear-gradient" x1="0.715" y1="0.5" x2="0.413" y2="0.5" gradientUnits="objectBoundingBox">
      <stop offset="0.002" stop-color="#d0dff7"/>
      <stop offset="0.091" stop-color="#d6e3f8"/>
      <stop offset="0.537" stop-color="#f3f7fd"/>
      <stop offset="0.791" stop-color="#fff"/>
    </linearGradient>
  </defs>
  <path id="Path_4260" data-name="Path 4260" d="M966.129,545.425c.081.006.165.013.246.013l.113,0,.052-.006c.32-.036.647-.081.964-.129a1.3,1.3,0,0,0,.191-.042,5.087,5.087,0,0,0,.987-.421l.065-.042c.185-.133.537-.411.712-.55l.016-.013.036-.032.052-.055a7.938,7.938,0,0,0,.592-.767l.039-.068.019-.039.009-.023c.11-.252.259-.586.356-.844a1.155,1.155,0,0,0,.052-.181,7.19,7.19,0,0,0,.146-1.152,2.109,2.109,0,0,0-.013-.281,3.861,3.861,0,0,0-1.016-2.459,2.669,2.669,0,0,0-1.12-.718,2.613,2.613,0,0,0-1.339-.3l-.925.123a3.472,3.472,0,0,0-1.534.893l-.543.705a3.434,3.434,0,0,0-.473,1.754,1.907,1.907,0,0,1,0,.453l.126-.925a1.1,1.1,0,0,1-.068.252l.349-.828a.684.684,0,0,1-.094.165l.543-.7a.726.726,0,0,1-.123.123l.7-.544a.851.851,0,0,1-.165.1l.828-.353a.982.982,0,0,1-.253.068l.922-.123a1.9,1.9,0,0,1-.45,0,3.843,3.843,0,0,0-2.459,1.019,2.579,2.579,0,0,0-.718,1.116,2.649,2.649,0,0,0-.3,1.339l.126.925a3.47,3.47,0,0,0,.893,1.534l.705.544a3.472,3.472,0,0,0,1.753.475Z" transform="translate(-962.65 -537.311)" fill="url(#linear-gradient)"/>
</svg>
