<svg xmlns="http://www.w3.org/2000/svg" width="22.241" height="22.247" viewBox="0 0 22.241 22.247">
  <g id="Group_164" data-name="Group 164" transform="translate(-460.759 -5749.993)">
    <path id="Path_218" data-name="Path 218" d="M472.154,5981.152a11.124,11.124,0,1,1-7.862,3.258,11.1,11.1,0,0,1,7.862-3.258m7.248,3.873a10.252,10.252,0,1,0,3,7.254,10.212,10.212,0,0,0-3-7.254" transform="translate(-0.275 -231.159)" fill="#22963f"/>
    <path id="Path_219" data-name="Path 219" d="M477.72,5989.908a2.663,2.663,0,0,0-.455-1.176,1.627,1.627,0,0,0-1.133-.5c-1.589-.117-3.972-.117-3.972-.117h-.012s-2.377,0-3.966.117a1.618,1.618,0,0,0-1.138.5,2.668,2.668,0,0,0-.456,1.176,18.141,18.141,0,0,0-.117,1.909v.905a17.837,17.837,0,0,0,.117,1.909,2.707,2.707,0,0,0,.456,1.182,1.852,1.852,0,0,0,1.256.5c.9.093,3.86.123,3.86.123s2.383-.012,3.972-.123a1.59,1.59,0,0,0,1.133-.5,2.7,2.7,0,0,0,.455-1.182,18.788,18.788,0,0,0,.111-1.909v-.905a19.109,19.109,0,0,0-.111-1.909m-3.669,2.242-3.073,1.655v-3.324l1.392.757Z" transform="translate(-0.275 -231.159)" fill="#22963f" fill-rule="evenodd"/>
  </g>
</svg>
