<svg id="Group_789" data-name="Group 789" xmlns="http://www.w3.org/2000/svg" xmlns:xlink="http://www.w3.org/1999/xlink" width="6.954" height="8.116" viewBox="0 0 6.954 8.116">
  <defs>
    <linearGradient id="linear-gradient" x1="0.667" y1="0.5" x2="0.333" y2="0.5" gradientUnits="objectBoundingBox">
      <stop offset="0.002" stop-color="#d0dff7"/>
      <stop offset="0.091" stop-color="#d6e3f8"/>
      <stop offset="0.537" stop-color="#f3f7fd"/>
      <stop offset="0.791" stop-color="#fff"/>
    </linearGradient>
  </defs>
  <path id="Path_4270" data-name="Path 4270" d="M1047.065,396.2v1.161a2.6,2.6,0,0,0,.3,1.336,2.57,2.57,0,0,0,.718,1.119,3.889,3.889,0,0,0,2.459,1.019l.926-.123a3.481,3.481,0,0,0,1.534-.9l.543-.7a3.453,3.453,0,0,0,.473-1.754V396.2a2.611,2.611,0,0,0-.3-1.34,2.577,2.577,0,0,0-.718-1.116,2.646,2.646,0,0,0-1.119-.721,2.611,2.611,0,0,0-1.34-.3l-.925.123a3.451,3.451,0,0,0-1.534.9l-.543.7a3.444,3.444,0,0,0-.472,1.753Z" transform="translate(-1047.062 -392.718)" fill="url(#linear-gradient)"/>
</svg>
