<svg id="Group_762" data-name="Group 762" xmlns="http://www.w3.org/2000/svg" xmlns:xlink="http://www.w3.org/1999/xlink" width="8.125" height="8.126" viewBox="0 0 8.125 8.126">
  <defs>
    <linearGradient id="linear-gradient" x1="0.715" y1="0.5" x2="0.413" y2="0.5" gradientUnits="objectBoundingBox">
      <stop offset="0.002" stop-color="#d0dff7"/>
      <stop offset="0.091" stop-color="#d6e3f8"/>
      <stop offset="0.537" stop-color="#f3f7fd"/>
      <stop offset="0.791" stop-color="#fff"/>
    </linearGradient>
  </defs>
  <path id="Path_4243" data-name="Path 4243" d="M1057.7,528.333c.081.006.165.013.246.013l.113-.006.052,0c.321-.036.647-.081.964-.129a1.269,1.269,0,0,0,.191-.042,5.42,5.42,0,0,0,.987-.421l.065-.042c.184-.132.537-.411.711-.55l.016-.013.035-.032.052-.055a7.932,7.932,0,0,0,.592-.767l.039-.068.019-.039.009-.023c.11-.252.259-.586.356-.844a.925.925,0,0,0,.052-.181,7.276,7.276,0,0,0,.145-1.152,2.025,2.025,0,0,0-.009-.281,2.649,2.649,0,0,0-.3-1.34,3.566,3.566,0,0,0-3.177-2.135l-.926.123a3.473,3.473,0,0,0-1.533.893l-.544.705a3.441,3.441,0,0,0-.472,1.754,1.9,1.9,0,0,1,0,.45l.126-.922a1.1,1.1,0,0,1-.068.252l.353-.828a.844.844,0,0,1-.1.165l.544-.7a.735.735,0,0,1-.123.123l.7-.543a.847.847,0,0,1-.165.1l.828-.353a.98.98,0,0,1-.252.068l.922-.123a1.91,1.91,0,0,1-.449,0,2.612,2.612,0,0,0-1.34.3,2.663,2.663,0,0,0-1.119.718,3.859,3.859,0,0,0-1.016,2.459l.123.925a3.468,3.468,0,0,0,.893,1.534l.705.544a3.47,3.47,0,0,0,1.754.475Z" transform="translate(-1054.225 -520.219)" fill="url(#linear-gradient)"/>
</svg>
