<svg xmlns="http://www.w3.org/2000/svg" xmlns:xlink="http://www.w3.org/1999/xlink" width="63.468" height="40.25" viewBox="0 0 63.468 40.25">
  <defs>
    <linearGradient id="linear-gradient" x1="-5.98" y1="7.466" x2="-6.36" y2="7.077" gradientUnits="objectBoundingBox">
      <stop offset="0" stop-color="#45b2db"/>
      <stop offset="0.981" stop-color="#0057a2"/>
    </linearGradient>
  </defs>
  <g id="Group_679" data-name="Group 679" transform="translate(-503 -891.75)">
    <g id="Group_639" data-name="Group 639" transform="translate(512.755 891.75)">
      <path id="Path_4078" data-name="Path 4078" d="M962.643,470.878a151.581,151.581,0,0,1-34.828,18.953,20.06,20.06,0,0,1-3.241-5.976,1.458,1.458,0,0,1-.067-.182l-.024-.077a19.775,19.775,0,0,1-.978-5.634,19.338,19.338,0,0,1,.4-4.647,20.109,20.109,0,0,1,35.3-8.646,2.407,2.407,0,0,1,.189.228,20.156,20.156,0,0,1,1.372,1.97q.411.665.759,1.372A19.64,19.64,0,0,1,962.643,470.878Z" transform="translate(-923.494 -457.243)" fill="#00a1db"/>
      <path id="Path_4079" data-name="Path 4079" d="M960.8,468.1a19.5,19.5,0,0,1,.137,3.24,20.1,20.1,0,0,1-33.053,14.582,173.959,173.959,0,0,0,17.29-8.273A172.131,172.131,0,0,0,960.8,468.1Z" transform="translate(-920.729 -450.411)" fill="#00a1db"/>
      <path id="Path_4080" data-name="Path 4080" d="M961.526,465.063l-.09.052c-1.077.618-2.19,1.17-3.239,1.869-3.829,2.548-8.531,3.913-12.726,5.737a14.317,14.317,0,0,1-2.822,1.02c-2.335.464.077-1.067.077-1.652a8.55,8.55,0,0,0-3.076,1.222c-1.206.591-2.4,1.185-3.618,1.727a31.364,31.364,0,0,1-7.172,2.718c-.883.16-2.672.407-2.951-.748-.254-1.057,2.328-2.47.746-2.981-.711-.223-1.934.456-2.622.635-.173.049-.35.091-.528.126a19.336,19.336,0,0,1,.4-4.647c.36-.155.691-.308.99-.437,2.4-1,4.839-1.926,7.159-3.086,1.914-.958,3.861-1.867,5.79-2.807.963-.472,3.048-1.822,4.146-1.458a9.076,9.076,0,0,1-4.293,5.02c-.717.438-7.3,4.287-4.971,5.041.841.272,2.581-.5,3.41-.823a44.327,44.327,0,0,0,4.976-2.512c3.2-1.75,6.115-3.817,9.554-5.158,2.362-.914.508,1.256-.262,2.017-.648.644-2.858,2.079-2.516,3.152,1.261.182,3.195-.836,4.308-1.365,1.357-.64,2.76-1.233,4.059-1.939a24.416,24.416,0,0,1,4.51-2.094Q961.177,464.356,961.526,465.063Z" transform="translate(-923.494 -454.066)" fill="#00a1db" style="mix-blend-mode: multiply;isolation: isolate"/>
      <path id="Path_4081" data-name="Path 4081" d="M956.871,470.089a20.131,20.131,0,0,1-22.516,19.175c2.131-.922,4.36-1.641,6.361-2.757.78-.43,1.978-1.025.826-1.569-.963-.463-2.183.088-3.125.349-.878.241-1.931.417-1.269-.909.52-1.043,2.369-1.668,3.3-2.1,2.092-.955,4.236-1.791,6.317-2.757.8-.376,3.537-1.344,3.4-2.53-.106-.841-1.347-.657-1.571-1.3-.409-1.158,2.335-2.167,3.068-2.55,1.338-.7,2.675-1.4,3.969-2.191C956.052,470.7,956.451,470.386,956.871,470.089Z" transform="translate(-916.659 -449.159)" fill="#00a1db" style="mix-blend-mode: multiply;isolation: isolate"/>
    </g>
    <path id="Path_4082" data-name="Path 4082" d="M967.588,473.625a172.087,172.087,0,0,1-15.626,9.549,173.978,173.978,0,0,1-17.29,8.273c-9.424,3.816-16.3,5.235-17.41,3.195-1.074-1.968,3.467-6.695,11.265-12.276a1.44,1.44,0,0,0,.067.182c-4.419,3.379-6.853,6.08-6.211,7.255s4.225.6,9.451-1.279a151.6,151.6,0,0,0,34.828-18.953c4.419-3.379,6.853-6.08,6.211-7.255s-4.225-.6-9.459,1.274a2.39,2.39,0,0,0-.189-.228c9.313-3.757,16.092-5.137,17.194-3.11C981.559,462.353,976.337,467.581,967.588,473.625Z" transform="translate(-414.106 435.04)" fill="url(#linear-gradient)"/>
  </g>
</svg>
