<svg xmlns="http://www.w3.org/2000/svg" width="22.241" height="22.241" viewBox="0 0 22.241 22.241">
  <g id="Group_165" data-name="Group 165" transform="translate(-431.05 -5749.995)">
    <path id="Path_220" data-name="Path 220" d="M442.446,5981.154a11.124,11.124,0,1,1-7.863,3.258,11.079,11.079,0,0,1,7.863-3.258m7.247,3.873a10.242,10.242,0,1,0,3.005,7.248,10.2,10.2,0,0,0-3.005-7.248" transform="translate(-0.275 -231.159)" fill="#22963f"/>
    <path id="Path_221" data-name="Path 221" d="M437.427,5992.38v4.913h2.34V5990.6h-2.34Zm9.982.277c-.155-1.268-.733-2.056-2.445-2.056a2.087,2.087,0,0,0-1.964.9h-.031v-.9H441.1v6.692h1.952v-3.318c0-.875.172-1.718,1.244-1.718s1.157,1,1.157,1.779v3.257h2.008v-3.676a7.945,7.945,0,0,0-.055-.96m-8.812-5.4a1.17,1.17,0,1,0,1.17,1.17,1.17,1.17,0,0,0-1.17-1.17" transform="translate(-0.275 -231.159)" fill="#22963f" fill-rule="evenodd"/>
  </g>
</svg>
