<svg xmlns="http://www.w3.org/2000/svg" width="200.803" height="41.494" viewBox="0 0 200.803 41.494">
  <g id="Group_609" data-name="Group 609" transform="translate(-470.669 552.031)">
    <g id="Group_9" data-name="Group 9" transform="translate(520.812 -541.679)">
      <path id="Path_57" data-name="Path 57" d="M545.57-533.373h-.321l-3.941,8.983h-3.163l-4.01-8.983h-.321v8.983h-3.9v-14.894h5.431l4.17,9.395h.389l4.193-9.395h5.361v14.894H545.57Z" transform="translate(-529.919 539.72)" fill="#fff"/>
      <path id="Path_58" data-name="Path 58" d="M556.438-539.284H570.12v3.391h-9.786v2.36h7.951v3.391h-7.951v2.36h9.832v3.391H556.438Z" transform="translate(-533.995 539.72)" fill="#fff"/>
      <path id="Path_59" data-name="Path 59" d="M601.559-539.284h4.628l6.463,14.894h-4.4l-.985-2.429h-6.782l-.986,2.429h-4.279Zm.3,9.074h4.033l-1.856-4.583h-.344Z" transform="translate(-539.956 539.72)" fill="#fff"/>
      <path id="Path_60" data-name="Path 60" d="M656.283-539.284h4.629l6.462,14.894h-4.4l-.985-2.429h-6.782l-.985,2.429h-4.28Zm.3,9.074h4.033l-1.856-4.583h-.344Z" transform="translate(-548.367 539.72)" fill="#fff"/>
      <path id="Path_61" data-name="Path 61" d="M612.927-539.284h14.544v3.391h-5.325v11.5h-3.895v-11.5h-5.325Z" transform="translate(-542.678 539.72)" fill="#fff"/>
      <path id="Path_62" data-name="Path 62" d="M632.154-539.284h9.613c3.07,0,5.338,1.787,5.338,4.651a4.441,4.441,0,0,1-3.048,4.308v.137l2.9,5.8h-4.909l-2.2-5.156h-3.793v5.156h-3.9Zm3.9,3.62v2.5h5.718c.871,0,1.444-.458,1.444-1.26,0-.779-.573-1.237-1.444-1.237Z" transform="translate(-545.633 539.72)" fill="#fff"/>
      <path id="Path_63" data-name="Path 63" d="M671.419-539.284h7.448c4.628,0,8.18,2.772,8.18,7.424s-3.552,7.47-8.18,7.47h-7.448Zm3.895,3.391v8.112h3.554a3.885,3.885,0,0,0,4.216-4.079c0-2.612-1.787-4.033-4.216-4.033Z" transform="translate(-551.668 539.72)" fill="#fff"/>
      <path id="Path_64" data-name="Path 64" d="M691.721-539.284H705.4v3.391h-9.787v2.36h7.951v3.391h-7.951v2.36h9.832v3.391H691.721Z" transform="translate(-554.789 539.72)" fill="#fff"/>
      <path id="Path_65" data-name="Path 65" d="M583.733-529.258h2.406a4.422,4.422,0,0,1-3.528,1.444c-2.658,0-4.423-1.558-4.423-4.193,0-2.589,1.787-4.147,4.491-4.17a3.954,3.954,0,0,1,3.867,2.222H590.7v-.664c-1.193-3.717-3.8-5.179-8-5.179-4.881,0-8.478,3.025-8.478,7.791s3.345,7.814,7.905,7.814c2.546,0,4.476-.724,5.293-3.326v3.051h3.667v-7.974h-7.356Z" transform="translate(-536.729 539.799)" fill="#fff"/>
    </g>
    <g id="Group_10" data-name="Group 10" transform="translate(538.35 -520.375)">
      <path id="Path_66" data-name="Path 66" d="M554.873-511.647a2.513,2.513,0,0,1,.982.987,2.939,2.939,0,0,1,.355,1.452,2.96,2.96,0,0,1-.355,1.462,2.523,2.523,0,0,1-.977.987,2.82,2.82,0,0,1-1.4.35,2.6,2.6,0,0,1-1.207-.277,2.288,2.288,0,0,1-.882-.809v3.06h-.742v-7.52h.711v1.086a2.289,2.289,0,0,1,.882-.835,2.594,2.594,0,0,1,1.238-.292A2.82,2.82,0,0,1,554.873-511.647Zm-.408,4.314a1.872,1.872,0,0,0,.736-.757,2.3,2.3,0,0,0,.267-1.117,2.276,2.276,0,0,0-.267-1.113,1.919,1.919,0,0,0-.736-.757,2.048,2.048,0,0,0-1.044-.272,2.04,2.04,0,0,0-1.049.272,1.942,1.942,0,0,0-.731.757,2.277,2.277,0,0,0-.267,1.113,2.3,2.3,0,0,0,.267,1.117,1.894,1.894,0,0,0,.731.757,2.07,2.07,0,0,0,1.049.267A2.078,2.078,0,0,0,554.465-507.334Z" transform="translate(-550.642 514.222)" fill="#fff"/>
      <path id="Path_67" data-name="Path 67" d="M561.152-511.715a2.645,2.645,0,0,1,1.28-.282v.72l-.178-.01a1.755,1.755,0,0,0-1.357.532,2.122,2.122,0,0,0-.491,1.494v2.8h-.741v-5.493h.71v1.076A1.794,1.794,0,0,1,561.152-511.715Z" transform="translate(-552.029 514.222)" fill="#fff"/>
      <path id="Path_68" data-name="Path 68" d="M565.659-506.77a2.626,2.626,0,0,1-1-1,2.844,2.844,0,0,1-.366-1.441,2.842,2.842,0,0,1,.366-1.441,2.592,2.592,0,0,1,1-.993,2.894,2.894,0,0,1,1.431-.355,2.9,2.9,0,0,1,1.431.355,2.56,2.56,0,0,1,1,.993,2.874,2.874,0,0,1,.36,1.441,2.876,2.876,0,0,1-.36,1.441,2.593,2.593,0,0,1-1,1,2.855,2.855,0,0,1-1.431.361A2.853,2.853,0,0,1,565.659-506.77Zm2.48-.564a1.86,1.86,0,0,0,.726-.757,2.348,2.348,0,0,0,.261-1.117,2.351,2.351,0,0,0-.261-1.118,1.86,1.86,0,0,0-.726-.757,2.08,2.08,0,0,0-1.049-.266,2.078,2.078,0,0,0-1.049.266,1.882,1.882,0,0,0-.731.757,2.305,2.305,0,0,0-.267,1.118,2.3,2.3,0,0,0,.267,1.117,1.882,1.882,0,0,0,.731.757,2.07,2.07,0,0,0,1.049.267A2.072,2.072,0,0,0,568.14-507.334Z" transform="translate(-552.74 514.222)" fill="#fff"/>
      <path id="Path_69" data-name="Path 69" d="M571.511-504.877a1.286,1.286,0,0,1-.506-.266l.261-.564a1.259,1.259,0,0,0,.857.282.86.86,0,0,0,.674-.261,1.122,1.122,0,0,0,.235-.773v-5.9h.741v5.9a1.724,1.724,0,0,1-.417,1.222,1.55,1.55,0,0,1-1.191.449A2.348,2.348,0,0,1,571.511-504.877Zm1.51-8.851a.509.509,0,0,1-.157-.376.5.5,0,0,1,.157-.366.524.524,0,0,1,.386-.157.537.537,0,0,1,.387.151.485.485,0,0,1,.157.361.525.525,0,0,1-.157.386.524.524,0,0,1-.387.157A.521.521,0,0,1,573.021-513.728Z" transform="translate(-553.772 514.626)" fill="#fff"/>
      <path id="Path_70" data-name="Path 70" d="M582.537-508.979h-4.6a1.961,1.961,0,0,0,.658,1.384,2.182,2.182,0,0,0,1.5.528,2.366,2.366,0,0,0,.939-.183,2.051,2.051,0,0,0,.742-.538l.417.481a2.359,2.359,0,0,1-.914.669,3.09,3.09,0,0,1-1.206.229,3.049,3.049,0,0,1-1.5-.361,2.6,2.6,0,0,1-1.018-1,2.844,2.844,0,0,1-.366-1.441,2.949,2.949,0,0,1,.349-1.441,2.535,2.535,0,0,1,.961-.993,2.686,2.686,0,0,1,1.373-.355,2.66,2.66,0,0,1,1.368.355,2.517,2.517,0,0,1,.951.988,2.964,2.964,0,0,1,.344,1.446Zm-3.984-1.875a1.989,1.989,0,0,0-.611,1.321h3.9a1.986,1.986,0,0,0-.611-1.321,1.881,1.881,0,0,0-1.342-.507A1.868,1.868,0,0,0,578.552-510.854Z" transform="translate(-554.724 514.222)" fill="#fff"/>
      <path id="Path_71" data-name="Path 71" d="M586.841-506.765a2.565,2.565,0,0,1-1.008-1,2.872,2.872,0,0,1-.366-1.446,2.842,2.842,0,0,1,.366-1.441,2.583,2.583,0,0,1,1.008-.993A2.968,2.968,0,0,1,588.3-512a2.821,2.821,0,0,1,1.269.277,2.11,2.11,0,0,1,.883.809l-.553.376a1.736,1.736,0,0,0-.69-.611,2.049,2.049,0,0,0-.908-.2,2.158,2.158,0,0,0-1.071.266,1.87,1.87,0,0,0-.742.757,2.314,2.314,0,0,0-.266,1.118,2.3,2.3,0,0,0,.266,1.122,1.879,1.879,0,0,0,.742.752,2.15,2.15,0,0,0,1.071.267,2.081,2.081,0,0,0,.908-.2,1.692,1.692,0,0,0,.69-.606l.553.377a2.1,2.1,0,0,1-.888.809,2.829,2.829,0,0,1-1.264.277A2.959,2.959,0,0,1,586.841-506.765Z" transform="translate(-555.995 514.222)" fill="#fff"/>
      <path id="Path_72" data-name="Path 72" d="M596.7-507.007a1.408,1.408,0,0,1-.517.288,2.089,2.089,0,0,1-.642.1,1.608,1.608,0,0,1-1.191-.418,1.594,1.594,0,0,1-.417-1.18v-3.322h-.982v-.626h.982v-1.2h.741v1.2h1.671v.626H594.67v3.28a1.04,1.04,0,0,0,.245.746.929.929,0,0,0,.7.256,1.351,1.351,0,0,0,.443-.073,1.114,1.114,0,0,0,.371-.209Z" transform="translate(-557.144 514.432)" fill="#fff"/>
      <path id="Path_73" data-name="Path 73" d="M609.867-514.614v7.75h-.71v-1.086a2.262,2.262,0,0,1-.883.845,2.581,2.581,0,0,1-1.237.293,2.787,2.787,0,0,1-1.4-.355,2.532,2.532,0,0,1-.982-.992,2.927,2.927,0,0,1-.355-1.451,2.93,2.93,0,0,1,.355-1.452,2.508,2.508,0,0,1,.982-.987,2.819,2.819,0,0,1,1.4-.35,2.6,2.6,0,0,1,1.206.277,2.291,2.291,0,0,1,.883.809v-3.3Zm-1.728,6.878a1.893,1.893,0,0,0,.731-.757,2.311,2.311,0,0,0,.266-1.117,2.314,2.314,0,0,0-.266-1.118,1.893,1.893,0,0,0-.731-.757,2.062,2.062,0,0,0-1.039-.266,2.081,2.081,0,0,0-1.05.266,1.885,1.885,0,0,0-.73.757,2.3,2.3,0,0,0-.267,1.118,2.3,2.3,0,0,0,.267,1.117,1.885,1.885,0,0,0,.73.757,2.073,2.073,0,0,0,1.05.267A2.054,2.054,0,0,0,608.139-507.736Z" transform="translate(-558.89 514.624)" fill="#fff"/>
      <path id="Path_74" data-name="Path 74" d="M614.577-513.715a.516.516,0,0,1-.157-.377.5.5,0,0,1,.157-.366.527.527,0,0,1,.387-.157.535.535,0,0,1,.386.151.483.483,0,0,1,.157.361.524.524,0,0,1-.157.387.526.526,0,0,1-.386.157A.527.527,0,0,1,614.577-513.715Zm.01,1.357h.742v5.493h-.742Z" transform="translate(-560.445 514.624)" fill="#fff"/>
      <path id="Path_75" data-name="Path 75" d="M619.448-506.6a2.744,2.744,0,0,1-.956-.486l.333-.585a2.8,2.8,0,0,0,.867.443,3.435,3.435,0,0,0,1.086.173,2.071,2.071,0,0,0,1.112-.235.747.747,0,0,0,.361-.663.6.6,0,0,0-.2-.476,1.32,1.32,0,0,0-.5-.261,7.131,7.131,0,0,0-.8-.173,9.278,9.278,0,0,1-1.076-.256,1.586,1.586,0,0,1-.695-.444,1.235,1.235,0,0,1-.287-.867,1.358,1.358,0,0,1,.575-1.128,2.576,2.576,0,0,1,1.6-.438,4.152,4.152,0,0,1,1.065.14,2.927,2.927,0,0,1,.877.371l-.323.6a2.776,2.776,0,0,0-1.619-.471,1.873,1.873,0,0,0-1.071.251.766.766,0,0,0-.36.658.647.647,0,0,0,.2.5,1.233,1.233,0,0,0,.506.277,8.129,8.129,0,0,0,.836.184,9.45,9.45,0,0,1,1.055.25,1.539,1.539,0,0,1,.679.428,1.177,1.177,0,0,1,.282.835,1.327,1.327,0,0,1-.6,1.143,2.85,2.85,0,0,1-1.666.423A4.22,4.22,0,0,1,619.448-506.6Z" transform="translate(-561.071 514.222)" fill="#fff"/>
      <path id="Path_76" data-name="Path 76" d="M629.622-507.007a1.408,1.408,0,0,1-.517.288,2.09,2.09,0,0,1-.642.1,1.608,1.608,0,0,1-1.191-.418,1.6,1.6,0,0,1-.417-1.18v-3.322h-.983v-.626h.983v-1.2h.741v1.2h1.671v.626H627.6v3.28a1.036,1.036,0,0,0,.245.746.929.929,0,0,0,.7.256,1.351,1.351,0,0,0,.444-.073,1.1,1.1,0,0,0,.371-.209Z" transform="translate(-562.205 514.432)" fill="#fff"/>
      <path id="Path_77" data-name="Path 77" d="M634.519-511.715A2.645,2.645,0,0,1,635.8-512v.72l-.178-.01a1.758,1.758,0,0,0-1.358.532,2.126,2.126,0,0,0-.491,1.494v2.8h-.741v-5.493h.71v1.076A1.8,1.8,0,0,1,634.519-511.715Z" transform="translate(-563.305 514.222)" fill="#fff"/>
      <path id="Path_78" data-name="Path 78" d="M639.3-513.715a.516.516,0,0,1-.157-.377.5.5,0,0,1,.157-.366.527.527,0,0,1,.387-.157.534.534,0,0,1,.386.151.483.483,0,0,1,.157.361.524.524,0,0,1-.157.387.525.525,0,0,1-.386.157A.527.527,0,0,1,639.3-513.715Zm.01,1.357h.742v5.493h-.742Z" transform="translate(-564.244 514.624)" fill="#fff"/>
      <path id="Path_79" data-name="Path 79" d="M648.343-512.05a2.514,2.514,0,0,1,.982.987,2.939,2.939,0,0,1,.355,1.452,2.936,2.936,0,0,1-.355,1.451,2.538,2.538,0,0,1-.982.992,2.788,2.788,0,0,1-1.4.355,2.585,2.585,0,0,1-1.238-.293,2.255,2.255,0,0,1-.882-.845v1.086h-.711v-7.75h.742v3.3a2.288,2.288,0,0,1,.882-.809,2.6,2.6,0,0,1,1.207-.277A2.819,2.819,0,0,1,648.343-512.05Zm-.408,4.314a1.878,1.878,0,0,0,.736-.757,2.3,2.3,0,0,0,.267-1.117,2.305,2.305,0,0,0-.267-1.118,1.878,1.878,0,0,0-.736-.757,2.088,2.088,0,0,0-1.044-.266,2.077,2.077,0,0,0-1.049.266,1.893,1.893,0,0,0-.731.757,2.305,2.305,0,0,0-.267,1.118,2.3,2.3,0,0,0,.267,1.117,1.893,1.893,0,0,0,.731.757,2.069,2.069,0,0,0,1.049.267A2.08,2.08,0,0,0,647.935-507.736Z" transform="translate(-565.009 514.624)" fill="#fff"/>
      <path id="Path_80" data-name="Path 80" d="M658.074-511.948v5.493h-.71v-1a2.03,2.03,0,0,1-.8.778,2.42,2.42,0,0,1-1.17.277,2.337,2.337,0,0,1-1.7-.6,2.338,2.338,0,0,1-.621-1.759v-3.185h.741v3.113a1.838,1.838,0,0,0,.428,1.316,1.611,1.611,0,0,0,1.222.449,1.8,1.8,0,0,0,1.368-.527,2.043,2.043,0,0,0,.5-1.467v-2.883Z" transform="translate(-566.386 514.214)" fill="#fff"/>
      <path id="Path_81" data-name="Path 81" d="M665.472-507.007a1.4,1.4,0,0,1-.517.288,2.082,2.082,0,0,1-.642.1,1.6,1.6,0,0,1-1.19-.418,1.591,1.591,0,0,1-.418-1.18v-3.322h-.982v-.626h.982v-1.2h.741v1.2h1.671v.626h-1.671v3.28a1.04,1.04,0,0,0,.245.746.929.929,0,0,0,.705.256,1.358,1.358,0,0,0,.444-.073,1.118,1.118,0,0,0,.371-.209Z" transform="translate(-567.716 514.432)" fill="#fff"/>
      <path id="Path_82" data-name="Path 82" d="M668.84-513.715a.516.516,0,0,1-.157-.377.5.5,0,0,1,.157-.366.528.528,0,0,1,.387-.157.534.534,0,0,1,.386.151.483.483,0,0,1,.156.361.524.524,0,0,1-.156.387.525.525,0,0,1-.386.157A.528.528,0,0,1,668.84-513.715Zm.011,1.357h.741v5.493h-.741Z" transform="translate(-568.785 514.624)" fill="#fff"/>
      <path id="Path_83" data-name="Path 83" d="M673.729-506.77a2.619,2.619,0,0,1-1-1,2.836,2.836,0,0,1-.366-1.441,2.834,2.834,0,0,1,.366-1.441,2.585,2.585,0,0,1,1-.993A2.9,2.9,0,0,1,675.16-512a2.9,2.9,0,0,1,1.431.355,2.561,2.561,0,0,1,1,.993,2.874,2.874,0,0,1,.361,1.441,2.876,2.876,0,0,1-.361,1.441,2.594,2.594,0,0,1-1,1,2.855,2.855,0,0,1-1.431.361A2.856,2.856,0,0,1,673.729-506.77Zm2.481-.564a1.86,1.86,0,0,0,.726-.757,2.338,2.338,0,0,0,.261-1.117,2.341,2.341,0,0,0-.261-1.118,1.86,1.86,0,0,0-.726-.757,2.078,2.078,0,0,0-1.049-.266,2.078,2.078,0,0,0-1.049.266,1.893,1.893,0,0,0-.731.757,2.3,2.3,0,0,0-.267,1.118,2.3,2.3,0,0,0,.267,1.117,1.893,1.893,0,0,0,.731.757,2.07,2.07,0,0,0,1.049.267A2.07,2.07,0,0,0,676.209-507.334Z" transform="translate(-569.351 514.222)" fill="#fff"/>
      <path id="Path_84" data-name="Path 84" d="M685.69-511.4a2.344,2.344,0,0,1,.611,1.749v3.185h-.741v-3.112a1.822,1.822,0,0,0-.428-1.306,1.608,1.608,0,0,0-1.222-.449,1.877,1.877,0,0,0-1.4.528,1.991,1.991,0,0,0-.517,1.456v2.882h-.741v-5.493h.71v1.013a2.063,2.063,0,0,1,.841-.778,2.69,2.69,0,0,1,1.248-.277A2.244,2.244,0,0,1,685.69-511.4Z" transform="translate(-570.716 514.222)" fill="#fff"/>
    </g>
    <g id="Group_12" data-name="Group 12" transform="translate(470.669 -552.031)">
      <g id="Group_11" data-name="Group 11">
        <path id="Path_85" data-name="Path 85" d="M470.669-532.629h22l-19.385-8.03A19.517,19.517,0,0,0,470.669-532.629Z" transform="translate(-470.669 550.283)" fill="#fff"/>
        <path id="Path_86" data-name="Path 86" d="M476.543-514.758c.217.238.438.473.669.7a19.54,19.54,0,0,0,5.565,3.9l12.27-12.27Z" transform="translate(-471.572 547.48)" fill="#fff"/>
        <path id="Path_87" data-name="Path 87" d="M492.673-526.624h-22a19.517,19.517,0,0,0,2.618,8.03Z" transform="translate(-470.669 548.125)" fill="#fff"/>
        <path id="Path_88" data-name="Path 88" d="M506.777-546.3a19.562,19.562,0,0,0-18.058-5.274l10.921,10.921-.036-.088,8.248,8.289-8.215,8.206,0-.007-10.921,10.921a19.562,19.562,0,0,0,18.058-5.274A19.582,19.582,0,0,0,506.777-546.3Z" transform="translate(-473.443 552.031)" fill="#fff"/>
        <path id="Path_89" data-name="Path 89" d="M482.777-549.871a19.541,19.541,0,0,0-5.565,3.9c-.23.23-.452.465-.669.7l18.5,7.664Z" transform="translate(-471.572 551.699)" fill="#fff"/>
      </g>
    </g>
  </g>
</svg>
