<svg xmlns="http://www.w3.org/2000/svg" width="11" height="11" viewBox="0 0 11 11">
  <path id="Path_213" data-name="Path 213" d="M412.033,6023.933a2.071,2.071,0,0,1-.953.828,2.987,2.987,0,0,1-1.454.4,6.027,6.027,0,0,1-2.046-.539,7.366,7.366,0,0,1-1.368-.648,13.218,13.218,0,0,1-3.75-3.75,7.377,7.377,0,0,1-.648-1.367,6.031,6.031,0,0,1-.539-2.047,2.981,2.981,0,0,1,.4-1.453,2.066,2.066,0,0,1,.828-.954,3.492,3.492,0,0,1,1.086-.242.389.389,0,0,1,.164.024c.165.054.336.437.415.593.25.446.492.9.75,1.336.125.2.359.453.359.7,0,.476-1.414,1.172-1.414,1.593a1.671,1.671,0,0,0,.3.672,7.773,7.773,0,0,0,3.2,3.2,1.682,1.682,0,0,0,.672.3c.422,0,1.117-1.414,1.593-1.414.243,0,.493.235.7.36.437.257.89.5,1.336.75.156.078.539.25.593.414a.387.387,0,0,1,.024.164A3.487,3.487,0,0,1,412.033,6023.933Z" transform="translate(-401.275 -6014.159)" fill="#22963f"/>
</svg>
