<svg xmlns="http://www.w3.org/2000/svg" width="14" height="11" viewBox="0 0 14 11">
  <path id="Path_214" data-name="Path 214" d="M413.939,6035.35c-1.219.844-2.445,1.687-3.656,2.539-.508.351-1.367,1.07-2,1.07h-.016c-.633,0-1.492-.719-2-1.07-1.211-.852-2.437-1.7-3.648-2.539a3.046,3.046,0,0,1-1.344-1.969,1.267,1.267,0,0,1,1.25-1.422h11.5a1.259,1.259,0,0,1,1.25,1.25A2.824,2.824,0,0,1,413.939,6035.35Zm1.336,6.359a1.254,1.254,0,0,1-1.25,1.25h-11.5a1.253,1.253,0,0,1-1.25-1.25v-6.2a4.361,4.361,0,0,0,.789.68c1.3.883,2.609,1.765,3.883,2.695a4.281,4.281,0,0,0,2.32,1.078h.016a4.281,4.281,0,0,0,2.32-1.078c1.273-.922,2.586-1.812,3.891-2.695a4.6,4.6,0,0,0,.781-.68Z" transform="translate(-401.275 -6031.959)" fill="#22963f"/>
</svg>
