<svg xmlns="http://www.w3.org/2000/svg" xmlns:xlink="http://www.w3.org/1999/xlink" width="43.988" height="44.077" viewBox="0 0 43.988 44.077">
  <defs>
    <linearGradient id="linear-gradient" x1="0.893" y1="0.786" x2="0.152" y2="0.247" gradientUnits="objectBoundingBox">
      <stop offset="0" stop-color="#45b2db"/>
      <stop offset="0.981" stop-color="#0057a2"/>
    </linearGradient>
  </defs>
  <path id="Path_4178" data-name="Path 4178" d="M1163.738,309.7a21.9,21.9,0,0,1-.893,3.8,21.4,21.4,0,0,1-1.673,3.777q-.378.675-.807,1.322a22.086,22.086,0,0,1-21.027,9.722c-.675-.084-1.346-.2-2.006-.342a22.139,22.139,0,0,1-6-2.269q-.755-.418-1.481-.9c-.525-.342-1.034-.711-1.529-1.1-.288.012-.786-.636-.977-.812-.4-.369-.789-.753-1.166-1.146a24.1,24.1,0,0,1-2.078-2.509,21.841,21.841,0,0,1-2.791-5.246c-.054-.15-.108-.3-.159-.453a1.423,1.423,0,0,1-.075-.2l-.027-.081a21.737,21.737,0,0,1-1.034-5.372c-.018-.267-.03-.531-.036-.8a21.07,21.07,0,0,1,.441-5.088,22.033,22.033,0,0,1,35.906-12.291,20.911,20.911,0,0,1,1.721,1.658,21.407,21.407,0,0,1,1.9,2.392,23.173,23.173,0,0,1,3.2,6.976,22.261,22.261,0,0,1,.654,3.376A22.023,22.023,0,0,1,1163.738,309.7Z" transform="translate(-1119.962 -284.409)" fill="url(#linear-gradient)"/>
</svg>
